<mxfile host="app.diagrams.net" agent="Mozilla/5.0 (Windows NT 10.0; Win64; x64) AppleWebKit/537.36 (KHTML, like Gecko) Chrome/135.0.0.0 Safari/537.36" version="26.2.12">
  <diagram name="Page-1" id="jwbvRO_aUIdKi3Ljp_FM">
    <mxGraphModel dx="3064" dy="2263" grid="1" gridSize="10" guides="1" tooltips="1" connect="1" arrows="1" fold="1" page="1" pageScale="1" pageWidth="827" pageHeight="1169" math="0" shadow="0">
      <root>
        <mxCell id="0" />
        <mxCell id="1" parent="0" />
        <mxCell id="H9n-Ir_IiPvq5BRFLjXa-1" value="Student" style="shape=table;startSize=30;container=1;collapsible=1;childLayout=tableLayout;fixedRows=1;rowLines=0;fontStyle=1;align=center;resizeLast=1;html=1;" vertex="1" parent="1">
          <mxGeometry x="140" y="-50" width="180" height="240" as="geometry" />
        </mxCell>
        <mxCell id="H9n-Ir_IiPvq5BRFLjXa-2" value="" style="shape=tableRow;horizontal=0;startSize=0;swimlaneHead=0;swimlaneBody=0;fillColor=none;collapsible=0;dropTarget=0;points=[[0,0.5],[1,0.5]];portConstraint=eastwest;top=0;left=0;right=0;bottom=1;" vertex="1" parent="H9n-Ir_IiPvq5BRFLjXa-1">
          <mxGeometry y="30" width="180" height="30" as="geometry" />
        </mxCell>
        <mxCell id="H9n-Ir_IiPvq5BRFLjXa-3" value="PK" style="shape=partialRectangle;connectable=0;fillColor=none;top=0;left=0;bottom=0;right=0;fontStyle=1;overflow=hidden;whiteSpace=wrap;html=1;" vertex="1" parent="H9n-Ir_IiPvq5BRFLjXa-2">
          <mxGeometry width="30" height="30" as="geometry">
            <mxRectangle width="30" height="30" as="alternateBounds" />
          </mxGeometry>
        </mxCell>
        <mxCell id="H9n-Ir_IiPvq5BRFLjXa-4" value="&lt;code data-end=&quot;365&quot; data-start=&quot;353&quot;&gt;student_id&lt;/code&gt;" style="shape=partialRectangle;connectable=0;fillColor=none;top=0;left=0;bottom=0;right=0;align=left;spacingLeft=6;fontStyle=5;overflow=hidden;whiteSpace=wrap;html=1;" vertex="1" parent="H9n-Ir_IiPvq5BRFLjXa-2">
          <mxGeometry x="30" width="150" height="30" as="geometry">
            <mxRectangle width="150" height="30" as="alternateBounds" />
          </mxGeometry>
        </mxCell>
        <mxCell id="H9n-Ir_IiPvq5BRFLjXa-5" value="" style="shape=tableRow;horizontal=0;startSize=0;swimlaneHead=0;swimlaneBody=0;fillColor=none;collapsible=0;dropTarget=0;points=[[0,0.5],[1,0.5]];portConstraint=eastwest;top=0;left=0;right=0;bottom=0;" vertex="1" parent="H9n-Ir_IiPvq5BRFLjXa-1">
          <mxGeometry y="60" width="180" height="30" as="geometry" />
        </mxCell>
        <mxCell id="H9n-Ir_IiPvq5BRFLjXa-6" value="" style="shape=partialRectangle;connectable=0;fillColor=none;top=0;left=0;bottom=0;right=0;editable=1;overflow=hidden;whiteSpace=wrap;html=1;" vertex="1" parent="H9n-Ir_IiPvq5BRFLjXa-5">
          <mxGeometry width="30" height="30" as="geometry">
            <mxRectangle width="30" height="30" as="alternateBounds" />
          </mxGeometry>
        </mxCell>
        <mxCell id="H9n-Ir_IiPvq5BRFLjXa-7" value="name" style="shape=partialRectangle;connectable=0;fillColor=none;top=0;left=0;bottom=0;right=0;align=left;spacingLeft=6;overflow=hidden;whiteSpace=wrap;html=1;" vertex="1" parent="H9n-Ir_IiPvq5BRFLjXa-5">
          <mxGeometry x="30" width="150" height="30" as="geometry">
            <mxRectangle width="150" height="30" as="alternateBounds" />
          </mxGeometry>
        </mxCell>
        <mxCell id="H9n-Ir_IiPvq5BRFLjXa-8" value="" style="shape=tableRow;horizontal=0;startSize=0;swimlaneHead=0;swimlaneBody=0;fillColor=none;collapsible=0;dropTarget=0;points=[[0,0.5],[1,0.5]];portConstraint=eastwest;top=0;left=0;right=0;bottom=0;" vertex="1" parent="H9n-Ir_IiPvq5BRFLjXa-1">
          <mxGeometry y="90" width="180" height="30" as="geometry" />
        </mxCell>
        <mxCell id="H9n-Ir_IiPvq5BRFLjXa-9" value="" style="shape=partialRectangle;connectable=0;fillColor=none;top=0;left=0;bottom=0;right=0;editable=1;overflow=hidden;whiteSpace=wrap;html=1;" vertex="1" parent="H9n-Ir_IiPvq5BRFLjXa-8">
          <mxGeometry width="30" height="30" as="geometry">
            <mxRectangle width="30" height="30" as="alternateBounds" />
          </mxGeometry>
        </mxCell>
        <mxCell id="H9n-Ir_IiPvq5BRFLjXa-10" value="email" style="shape=partialRectangle;connectable=0;fillColor=none;top=0;left=0;bottom=0;right=0;align=left;spacingLeft=6;overflow=hidden;whiteSpace=wrap;html=1;" vertex="1" parent="H9n-Ir_IiPvq5BRFLjXa-8">
          <mxGeometry x="30" width="150" height="30" as="geometry">
            <mxRectangle width="150" height="30" as="alternateBounds" />
          </mxGeometry>
        </mxCell>
        <mxCell id="H9n-Ir_IiPvq5BRFLjXa-11" value="" style="shape=tableRow;horizontal=0;startSize=0;swimlaneHead=0;swimlaneBody=0;fillColor=none;collapsible=0;dropTarget=0;points=[[0,0.5],[1,0.5]];portConstraint=eastwest;top=0;left=0;right=0;bottom=0;" vertex="1" parent="H9n-Ir_IiPvq5BRFLjXa-1">
          <mxGeometry y="120" width="180" height="30" as="geometry" />
        </mxCell>
        <mxCell id="H9n-Ir_IiPvq5BRFLjXa-12" value="" style="shape=partialRectangle;connectable=0;fillColor=none;top=0;left=0;bottom=0;right=0;editable=1;overflow=hidden;whiteSpace=wrap;html=1;" vertex="1" parent="H9n-Ir_IiPvq5BRFLjXa-11">
          <mxGeometry width="30" height="30" as="geometry">
            <mxRectangle width="30" height="30" as="alternateBounds" />
          </mxGeometry>
        </mxCell>
        <mxCell id="H9n-Ir_IiPvq5BRFLjXa-13" value="password" style="shape=partialRectangle;connectable=0;fillColor=none;top=0;left=0;bottom=0;right=0;align=left;spacingLeft=6;overflow=hidden;whiteSpace=wrap;html=1;" vertex="1" parent="H9n-Ir_IiPvq5BRFLjXa-11">
          <mxGeometry x="30" width="150" height="30" as="geometry">
            <mxRectangle width="150" height="30" as="alternateBounds" />
          </mxGeometry>
        </mxCell>
        <mxCell id="H9n-Ir_IiPvq5BRFLjXa-44" value="" style="shape=tableRow;horizontal=0;startSize=0;swimlaneHead=0;swimlaneBody=0;fillColor=none;collapsible=0;dropTarget=0;points=[[0,0.5],[1,0.5]];portConstraint=eastwest;top=0;left=0;right=0;bottom=0;" vertex="1" parent="H9n-Ir_IiPvq5BRFLjXa-1">
          <mxGeometry y="150" width="180" height="30" as="geometry" />
        </mxCell>
        <mxCell id="H9n-Ir_IiPvq5BRFLjXa-45" value="" style="shape=partialRectangle;connectable=0;fillColor=none;top=0;left=0;bottom=0;right=0;editable=1;overflow=hidden;whiteSpace=wrap;html=1;" vertex="1" parent="H9n-Ir_IiPvq5BRFLjXa-44">
          <mxGeometry width="30" height="30" as="geometry">
            <mxRectangle width="30" height="30" as="alternateBounds" />
          </mxGeometry>
        </mxCell>
        <mxCell id="H9n-Ir_IiPvq5BRFLjXa-46" value="registration_date" style="shape=partialRectangle;connectable=0;fillColor=none;top=0;left=0;bottom=0;right=0;align=left;spacingLeft=6;overflow=hidden;whiteSpace=wrap;html=1;" vertex="1" parent="H9n-Ir_IiPvq5BRFLjXa-44">
          <mxGeometry x="30" width="150" height="30" as="geometry">
            <mxRectangle width="150" height="30" as="alternateBounds" />
          </mxGeometry>
        </mxCell>
        <mxCell id="H9n-Ir_IiPvq5BRFLjXa-47" value="" style="shape=tableRow;horizontal=0;startSize=0;swimlaneHead=0;swimlaneBody=0;fillColor=none;collapsible=0;dropTarget=0;points=[[0,0.5],[1,0.5]];portConstraint=eastwest;top=0;left=0;right=0;bottom=0;" vertex="1" parent="H9n-Ir_IiPvq5BRFLjXa-1">
          <mxGeometry y="180" width="180" height="30" as="geometry" />
        </mxCell>
        <mxCell id="H9n-Ir_IiPvq5BRFLjXa-48" value="" style="shape=partialRectangle;connectable=0;fillColor=none;top=0;left=0;bottom=0;right=0;editable=1;overflow=hidden;whiteSpace=wrap;html=1;" vertex="1" parent="H9n-Ir_IiPvq5BRFLjXa-47">
          <mxGeometry width="30" height="30" as="geometry">
            <mxRectangle width="30" height="30" as="alternateBounds" />
          </mxGeometry>
        </mxCell>
        <mxCell id="H9n-Ir_IiPvq5BRFLjXa-49" value="progress_level" style="shape=partialRectangle;connectable=0;fillColor=none;top=0;left=0;bottom=0;right=0;align=left;spacingLeft=6;overflow=hidden;whiteSpace=wrap;html=1;" vertex="1" parent="H9n-Ir_IiPvq5BRFLjXa-47">
          <mxGeometry x="30" width="150" height="30" as="geometry">
            <mxRectangle width="150" height="30" as="alternateBounds" />
          </mxGeometry>
        </mxCell>
        <mxCell id="H9n-Ir_IiPvq5BRFLjXa-50" value="" style="shape=tableRow;horizontal=0;startSize=0;swimlaneHead=0;swimlaneBody=0;fillColor=none;collapsible=0;dropTarget=0;points=[[0,0.5],[1,0.5]];portConstraint=eastwest;top=0;left=0;right=0;bottom=0;" vertex="1" parent="H9n-Ir_IiPvq5BRFLjXa-1">
          <mxGeometry y="210" width="180" height="30" as="geometry" />
        </mxCell>
        <mxCell id="H9n-Ir_IiPvq5BRFLjXa-51" value="" style="shape=partialRectangle;connectable=0;fillColor=none;top=0;left=0;bottom=0;right=0;editable=1;overflow=hidden;whiteSpace=wrap;html=1;" vertex="1" parent="H9n-Ir_IiPvq5BRFLjXa-50">
          <mxGeometry width="30" height="30" as="geometry">
            <mxRectangle width="30" height="30" as="alternateBounds" />
          </mxGeometry>
        </mxCell>
        <mxCell id="H9n-Ir_IiPvq5BRFLjXa-52" value="voice_preferences" style="shape=partialRectangle;connectable=0;fillColor=none;top=0;left=0;bottom=0;right=0;align=left;spacingLeft=6;overflow=hidden;whiteSpace=wrap;html=1;" vertex="1" parent="H9n-Ir_IiPvq5BRFLjXa-50">
          <mxGeometry x="30" width="150" height="30" as="geometry">
            <mxRectangle width="150" height="30" as="alternateBounds" />
          </mxGeometry>
        </mxCell>
        <UserObject label="&lt;pre&gt;                            ┌─────────────────┐                                                                   &#xa;                            │Student          │                                                                   &#xa;                            ├─────────────────┤                                                                   &#xa;                            │&lt;u&gt;student_id&lt;/u&gt;│                                                                   &#xa;                            │name             │                                                                   &#xa;                            │email            │                                                                   &#xa;                            │password         │                                                                   &#xa;                            │registration_date│                                                                   &#xa;                            │progress_level   │                                                                   &#xa;                            │voice_preferences│                                                                   &#xa;                            └─────────────────┘                                                                   &#xa;                                     |                                                                            &#xa;                                     |                                                                            &#xa;       ┌────────────────┐  ┌──────────────────┐   ┌─────────────────┐   ┌─────────────────┐   ┌─────────────────┐ &#xa;       │Course          │  │Feedback          │   │Payment          │   │VoiceCommand     │   │Teacher          │ &#xa;       ├────────────────┤  ├──────────────────┤   ├─────────────────┤   ├─────────────────┤   ├─────────────────┤ &#xa;       │&lt;u&gt;course_id&lt;/u&gt;│  │&lt;u&gt;feedback_id&lt;/u&gt;│   │&lt;u&gt;payment_id&lt;/u&gt;│   │&lt;u&gt;command_id&lt;/u&gt;│   │&lt;u&gt;teacher_id&lt;/u&gt;│ &#xa;       │name            │  │&lt;i&gt;student_id&lt;/i&gt; │   │&lt;i&gt;student_id&lt;/i&gt;│   │&lt;i&gt;student_id&lt;/i&gt;│   │name             │ &#xa;       │level           │  │message           │   │amount           │   │command_text     │   │email            │ &#xa;       │language        │  │timestamp         │   │date             │   │timestamp        │   │specialization   │ &#xa;       │description     │  │rating            │   │payment_gateway  │   │recognized_action│   │experience_years │ &#xa;       └────────────────┘  └──────────────────┘   │receipt_number   │   └─────────────────┘   └─────────────────┘ &#xa;                                                  └─────────────────┘                                  |          &#xa;                                                                                                       |          &#xa;┌─────────────────┐                                                                                    |          &#xa;│TestResult       │                      ┌────────────────────────────┐                      ┌───────────────────┐&#xa;├─────────────────┤                      │LearningMaterial            │                      │AdminReport        │&#xa;│&lt;u&gt;result_id&lt;/u&gt; │                      ├────────────────────────────┤                      ├───────────────────┤&#xa;│&lt;i&gt;student_id&lt;/i&gt;│                      │&lt;u&gt;material_id&lt;/u&gt;          │                      │&lt;u&gt;report_id&lt;/u&gt;   │&#xa;│&lt;i&gt;course_id&lt;/i&gt; │                      │&lt;i&gt;course_id&lt;/i&gt;            │                      │&lt;i&gt;generated_by&lt;/i&gt;│&#xa;│score            │                      │type                        │                      │description        │&#xa;│date_taken       │                      │content_url                 │                      │date_created       │&#xa;│rating           │                      │&lt;i&gt;created_by_teacher_id&lt;/i&gt;│                      └───────────────────┘&#xa;└─────────────────┘                      └────────────────────────────┘                                           &#xa;&lt;/pre&gt;" plantUmlData="{&#xa;  &quot;data&quot;: &quot;@startuml\n!define table(x) class x &lt;&lt; (T,#FFAAAA) &gt;&gt;\n!define primaryKey(x) &lt;u&gt;x&lt;/u&gt;\n!define foreignKey(x) &lt;i&gt;x&lt;/i&gt;\n\n&#39; Entities\ntable(Student) {\n  primaryKey(student_id)\n  name\n  email\n  password\n  registration_date\n  progress_level\n  voice_preferences\n}\n\ntable(Teacher) {\n  primaryKey(teacher_id)\n  name\n  email\n  specialization\n  experience_years\n}\n\ntable(Course) {\n  primaryKey(course_id)\n  name\n  level\n  language\n  description\n}\n\ntable(LearningMaterial) {\n  primaryKey(material_id)\n  foreignKey(course_id)\n  type\n  content_url\n  foreignKey(created_by_teacher_id)\n}\n\ntable(TestResult) {\n  primaryKey(result_id)\n  foreignKey(student_id)\n  foreignKey(course_id)\n  score\n  date_taken\n  rating\n}\n\ntable(Feedback) {\n  primaryKey(feedback_id)\n  foreignKey(student_id)\n  message\n  timestamp\n  rating\n}\n\ntable(Payment) {\n  primaryKey(payment_id)\n  foreignKey(student_id)\n  amount\n  date\n  payment_gateway\n  receipt_number\n}\n\ntable(VoiceCommand) {\n  primaryKey(command_id)\n  foreignKey(student_id)\n  command_text\n  timestamp\n  recognized_action\n}\n\ntable(AdminReport) {\n  primaryKey(report_id)\n  foreignKey(generated_by)\n  description\n  date_created\n}\n\n&#39; Relationships\nStudent --{ TestResult\nStudent --{ Feedback\nStudent --{ Payment\nStudent --{ VoiceCommand\nStudent }--{ Course : Enrolled\n\nTeacher --{ LearningMaterial\nTeacher --{ AdminReport\n\nCourse --{ LearningMaterial\nCourse --{ TestResult\n\n@enduml\n&quot;,&#xa;  &quot;format&quot;: &quot;txt&quot;&#xa;}" id="H9n-Ir_IiPvq5BRFLjXa-29">
          <mxCell style="text;html=1;align=left;verticalAlign=top;" vertex="1" parent="1">
            <mxGeometry x="1310" y="510" width="780" height="530" as="geometry" />
          </mxCell>
        </UserObject>
        <UserObject label="" plantUmlData="{&#xa;  &quot;data&quot;: &quot;@startuml\n!define table(x) class x &lt;&lt; (T,#FFAAAA) &gt;&gt;\n!define primaryKey(x) &lt;u&gt;x&lt;/u&gt;\n!define foreignKey(x) &lt;i&gt;x&lt;/i&gt;\n\n&#39; Entities\ntable(Student) {\n  primaryKey(student_id)\n  name\n  email\n  password\n  registration_date\n  progress_level\n  voice_preferences\n}\n\ntable(Teacher) {\n  primaryKey(teacher_id)\n  name\n  email\n  specialization\n  experience_years\n}\n\ntable(Course) {\n  primaryKey(course_id)\n  name\n  level\n  language\n  description\n}\n\ntable(LearningMaterial) {\n  primaryKey(material_id)\n  foreignKey(course_id)\n  type\n  content_url\n  foreignKey(created_by_teacher_id)\n}\n\ntable(TestResult) {\n  primaryKey(result_id)\n  foreignKey(student_id)\n  foreignKey(course_id)\n  score\n  date_taken\n  rating\n}\n\ntable(Feedback) {\n  primaryKey(feedback_id)\n  foreignKey(student_id)\n  message\n  timestamp\n  rating\n}\n\ntable(Payment) {\n  primaryKey(payment_id)\n  foreignKey(student_id)\n  amount\n  date\n  payment_gateway\n  receipt_number\n}\n\ntable(VoiceCommand) {\n  primaryKey(command_id)\n  foreignKey(student_id)\n  command_text\n  timestamp\n  recognized_action\n}\n\ntable(AdminReport) {\n  primaryKey(report_id)\n  foreignKey(generated_by)\n  description\n  date_created\n}\n\n&#39; Relationships\nStudent --{ TestResult\nStudent --{ Feedback\nStudent --{ Payment\nStudent --{ VoiceCommand\nStudent }--{ Course : Enrolled\n\nTeacher --{ LearningMaterial\nTeacher --{ AdminReport\n\nCourse --{ LearningMaterial\nCourse --{ TestResult\n\n@enduml\n&quot;,&#xa;  &quot;format&quot;: &quot;svg&quot;&#xa;}" id="H9n-Ir_IiPvq5BRFLjXa-30">
          <mxCell style="shape=image;noLabel=1;verticalAlign=top;aspect=fixed;imageAspect=0;image=data:image/svg+xml,PHN2ZyB4bWxucz0iaHR0cDovL3d3dy53My5vcmcvMjAwMC9zdmciIHhtbG5zOnhsaW5rPSJodHRwOi8vd3d3LnczLm9yZy8xOTk5L3hsaW5rIiBjb250ZW50U3R5bGVUeXBlPSJ0ZXh0L2NzcyIgZGF0YS1kaWFncmFtLXR5cGU9IkNMQVNTIiBoZWlnaHQ9IjU3OHB4IiBwcmVzZXJ2ZUFzcGVjdFJhdGlvPSJub25lIiBzdHlsZT0id2lkdGg6NzY0cHg7aGVpZ2h0OjU3OHB4O2JhY2tncm91bmQ6I0ZGRkZGRjsiIHZlcnNpb249IjEuMSIgdmlld0JveD0iMCAwIDc2NCA1NzgiIHdpZHRoPSI3NjRweCIgem9vbUFuZFBhbj0ibWFnbmlmeSI+PGRlZnMvPjxnPjwhLS1jbGFzcyBTdHVkZW50LS0+PGcgY2xhc3M9ImVudGl0eSIgZGF0YS1lbnRpdHk9IlN0dWRlbnQiIGRhdGEtc291cmNlLWxpbmU9IjYiIGRhdGEtdWlkPSJlbnQwMDAyIiBpZD0iZW50aXR5X1N0dWRlbnQiPjxyZWN0IGZpbGw9IiNGMUYxRjEiIGhlaWdodD0iMTUyLjg5MDYiIHJ4PSIyLjUiIHJ5PSIyLjUiIHN0eWxlPSJzdHJva2U6IzE4MTgxODtzdHJva2Utd2lkdGg6MC41OyIgd2lkdGg9IjEzMSIgeD0iMTY5LjUiIHk9IjciLz48ZWxsaXBzZSBjeD0iMjA3IiBjeT0iMjMiIGZpbGw9IiNGRkFBQUEiIHJ4PSIxMSIgcnk9IjExIiBzdHlsZT0ic3Ryb2tlOiMxODE4MTg7c3Ryb2tlLXdpZHRoOjE7Ii8+PHBhdGggZD0iTTIxMS4xODc1LDE5LjkzNzUgTDIxMS4xODc1LDE4LjE4NzUgTDIwMy4wNjI1LDE4LjE4NzUgTDIwMy4wNjI1LDE5LjkzNzUgTDIwNi4yNSwxOS45Mzc1IEwyMDYuMjUsMjkuNSBMMjA4LDI5LjUgTDIwOCwxOS45Mzc1IEwyMTEuMTg3NSwxOS45Mzc1IFogIiBmaWxsPSIjMDAwMDAwIi8+PHRleHQgZmlsbD0iIzAwMDAwMCIgZm9udC1mYW1pbHk9InNhbnMtc2VyaWYiIGZvbnQtc2l6ZT0iMTQiIGxlbmd0aEFkanVzdD0ic3BhY2luZyIgdGV4dExlbmd0aD0iNDkiIHg9IjIyNiIgeT0iMjguNzQyMiI+U3R1ZGVudDwvdGV4dD48bGluZSBzdHlsZT0ic3Ryb2tlOiMxODE4MTg7c3Ryb2tlLXdpZHRoOjAuNTsiIHgxPSIxNzAuNSIgeDI9IjI5OS41IiB5MT0iMzkiIHkyPSIzOSIvPjx0ZXh0IGZpbGw9IiMwMDAwMDAiIGZvbnQtZmFtaWx5PSJzYW5zLXNlcmlmIiBmb250LXNpemU9IjE0IiBsZW5ndGhBZGp1c3Q9InNwYWNpbmciIHRleHQtZGVjb3JhdGlvbj0idW5kZXJsaW5lIiB0ZXh0TGVuZ3RoPSI3MCIgeD0iMTc1LjUiIHk9IjU2LjIzNDQiPnN0dWRlbnRfaWQ8L3RleHQ+PHRleHQgZmlsbD0iIzAwMDAwMCIgZm9udC1mYW1pbHk9InNhbnMtc2VyaWYiIGZvbnQtc2l6ZT0iMTQiIGxlbmd0aEFkanVzdD0ic3BhY2luZyIgdGV4dExlbmd0aD0iMjgiIHg9IjE3NS41IiB5PSI3MS4yMTg4Ij5uYW1lPC90ZXh0Pjx0ZXh0IGZpbGw9IiMwMDAwMDAiIGZvbnQtZmFtaWx5PSJzYW5zLXNlcmlmIiBmb250LXNpemU9IjE0IiBsZW5ndGhBZGp1c3Q9InNwYWNpbmciIHRleHRMZW5ndGg9IjM1IiB4PSIxNzUuNSIgeT0iODYuMjAzMSI+ZW1haWw8L3RleHQ+PHRleHQgZmlsbD0iIzAwMDAwMCIgZm9udC1mYW1pbHk9InNhbnMtc2VyaWYiIGZvbnQtc2l6ZT0iMTQiIGxlbmd0aEFkanVzdD0ic3BhY2luZyIgdGV4dExlbmd0aD0iNTYiIHg9IjE3NS41IiB5PSIxMDEuMTg3NSI+cGFzc3dvcmQ8L3RleHQ+PHRleHQgZmlsbD0iIzAwMDAwMCIgZm9udC1mYW1pbHk9InNhbnMtc2VyaWYiIGZvbnQtc2l6ZT0iMTQiIGxlbmd0aEFkanVzdD0ic3BhY2luZyIgdGV4dExlbmd0aD0iMTE5IiB4PSIxNzUuNSIgeT0iMTE2LjE3MTkiPnJlZ2lzdHJhdGlvbl9kYXRlPC90ZXh0Pjx0ZXh0IGZpbGw9IiMwMDAwMDAiIGZvbnQtZmFtaWx5PSJzYW5zLXNlcmlmIiBmb250LXNpemU9IjE0IiBsZW5ndGhBZGp1c3Q9InNwYWNpbmciIHRleHRMZW5ndGg9Ijk4IiB4PSIxNzUuNSIgeT0iMTMxLjE1NjMiPnByb2dyZXNzX2xldmVsPC90ZXh0Pjx0ZXh0IGZpbGw9IiMwMDAwMDAiIGZvbnQtZmFtaWx5PSJzYW5zLXNlcmlmIiBmb250LXNpemU9IjE0IiBsZW5ndGhBZGp1c3Q9InNwYWNpbmciIHRleHRMZW5ndGg9IjExOSIgeD0iMTc1LjUiIHk9IjE0Ni4xNDA2Ij52b2ljZV9wcmVmZXJlbmNlczwvdGV4dD48bGluZSBzdHlsZT0ic3Ryb2tlOiMxODE4MTg7c3Ryb2tlLXdpZHRoOjAuNTsiIHgxPSIxNzAuNSIgeDI9IjI5OS41IiB5MT0iMTUxLjg5MDYiIHkyPSIxNTEuODkwNiIvPjwvZz48IS0tY2xhc3MgVGVhY2hlci0tPjxnIGNsYXNzPSJlbnRpdHkiIGRhdGEtZW50aXR5PSJUZWFjaGVyIiBkYXRhLXNvdXJjZS1saW5lPSIxNiIgZGF0YS11aWQ9ImVudDAwMDMiIGlkPSJlbnRpdHlfVGVhY2hlciI+PHJlY3QgZmlsbD0iI0YxRjFGMSIgaGVpZ2h0PSIxMjIuOTIxOSIgcng9IjIuNSIgcnk9IjIuNSIgc3R5bGU9InN0cm9rZTojMTgxODE4O3N0cm9rZS13aWR0aDowLjU7IiB3aWR0aD0iMTI0IiB4PSI2MzMiIHk9IjI0Mi41Ii8+PGVsbGlwc2UgY3g9IjY2Ny4zNSIgY3k9IjI1OC41IiBmaWxsPSIjRkZBQUFBIiByeD0iMTEiIHJ5PSIxMSIgc3R5bGU9InN0cm9rZTojMTgxODE4O3N0cm9rZS13aWR0aDoxOyIvPjxwYXRoIGQ9Ik02NzEuNTM3NSwyNTUuNDM3NSBMNjcxLjUzNzUsMjUzLjY4NzUgTDY2My40MTI1LDI1My42ODc1IEw2NjMuNDEyNSwyNTUuNDM3NSBMNjY2LjYsMjU1LjQzNzUgTDY2Ni42LDI2NSBMNjY4LjM1LDI2NSBMNjY4LjM1LDI1NS40Mzc1IEw2NzEuNTM3NSwyNTUuNDM3NSBaICIgZmlsbD0iIzAwMDAwMCIvPjx0ZXh0IGZpbGw9IiMwMDAwMDAiIGZvbnQtZmFtaWx5PSJzYW5zLXNlcmlmIiBmb250LXNpemU9IjE0IiBsZW5ndGhBZGp1c3Q9InNwYWNpbmciIHRleHRMZW5ndGg9IjQ5IiB4PSI2ODUuNjUiIHk9IjI2NC4yNDIyIj5UZWFjaGVyPC90ZXh0PjxsaW5lIHN0eWxlPSJzdHJva2U6IzE4MTgxODtzdHJva2Utd2lkdGg6MC41OyIgeDE9IjYzNCIgeDI9Ijc1NiIgeTE9IjI3NC41IiB5Mj0iMjc0LjUiLz48dGV4dCBmaWxsPSIjMDAwMDAwIiBmb250LWZhbWlseT0ic2Fucy1zZXJpZiIgZm9udC1zaXplPSIxNCIgbGVuZ3RoQWRqdXN0PSJzcGFjaW5nIiB0ZXh0LWRlY29yYXRpb249InVuZGVybGluZSIgdGV4dExlbmd0aD0iNzAiIHg9IjYzOSIgeT0iMjkxLjczNDQiPnRlYWNoZXJfaWQ8L3RleHQ+PHRleHQgZmlsbD0iIzAwMDAwMCIgZm9udC1mYW1pbHk9InNhbnMtc2VyaWYiIGZvbnQtc2l6ZT0iMTQiIGxlbmd0aEFkanVzdD0ic3BhY2luZyIgdGV4dExlbmd0aD0iMjgiIHg9IjYzOSIgeT0iMzA2LjcxODgiPm5hbWU8L3RleHQ+PHRleHQgZmlsbD0iIzAwMDAwMCIgZm9udC1mYW1pbHk9InNhbnMtc2VyaWYiIGZvbnQtc2l6ZT0iMTQiIGxlbmd0aEFkanVzdD0ic3BhY2luZyIgdGV4dExlbmd0aD0iMzUiIHg9IjYzOSIgeT0iMzIxLjcwMzEiPmVtYWlsPC90ZXh0Pjx0ZXh0IGZpbGw9IiMwMDAwMDAiIGZvbnQtZmFtaWx5PSJzYW5zLXNlcmlmIiBmb250LXNpemU9IjE0IiBsZW5ndGhBZGp1c3Q9InNwYWNpbmciIHRleHRMZW5ndGg9Ijk4IiB4PSI2MzkiIHk9IjMzNi42ODc1Ij5zcGVjaWFsaXphdGlvbjwvdGV4dD48dGV4dCBmaWxsPSIjMDAwMDAwIiBmb250LWZhbWlseT0ic2Fucy1zZXJpZiIgZm9udC1zaXplPSIxNCIgbGVuZ3RoQWRqdXN0PSJzcGFjaW5nIiB0ZXh0TGVuZ3RoPSIxMTIiIHg9IjYzOSIgeT0iMzUxLjY3MTkiPmV4cGVyaWVuY2VfeWVhcnM8L3RleHQ+PGxpbmUgc3R5bGU9InN0cm9rZTojMTgxODE4O3N0cm9rZS13aWR0aDowLjU7IiB4MT0iNjM0IiB4Mj0iNzU2IiB5MT0iMzU3LjQyMTkiIHkyPSIzNTcuNDIxOSIvPjwvZz48IS0tY2xhc3MgQ291cnNlLS0+PGcgY2xhc3M9ImVudGl0eSIgZGF0YS1lbnRpdHk9IkNvdXJzZSIgZGF0YS1zb3VyY2UtbGluZT0iMjQiIGRhdGEtdWlkPSJlbnQwMDA0IiBpZD0iZW50aXR5X0NvdXJzZSI+PHJlY3QgZmlsbD0iI0YxRjFGMSIgaGVpZ2h0PSIxMjIuOTIxOSIgcng9IjIuNSIgcnk9IjIuNSIgc3R5bGU9InN0cm9rZTojMTgxODE4O3N0cm9rZS13aWR0aDowLjU7IiB3aWR0aD0iODkiIHg9IjY2LjUiIHk9IjI0Mi41Ii8+PGVsbGlwc2UgY3g9Ijg4LjI1IiBjeT0iMjU4LjUiIGZpbGw9IiNGRkFBQUEiIHJ4PSIxMSIgcnk9IjExIiBzdHlsZT0ic3Ryb2tlOiMxODE4MTg7c3Ryb2tlLXdpZHRoOjE7Ii8+PHBhdGggZD0iTTkyLjQzNzUsMjU1LjQzNzUgTDkyLjQzNzUsMjUzLjY4NzUgTDg0LjMxMjUsMjUzLjY4NzUgTDg0LjMxMjUsMjU1LjQzNzUgTDg3LjUsMjU1LjQzNzUgTDg3LjUsMjY1IEw4OS4yNSwyNjUgTDg5LjI1LDI1NS40Mzc1IEw5Mi40Mzc1LDI1NS40Mzc1IFogIiBmaWxsPSIjMDAwMDAwIi8+PHRleHQgZmlsbD0iIzAwMDAwMCIgZm9udC1mYW1pbHk9InNhbnMtc2VyaWYiIGZvbnQtc2l6ZT0iMTQiIGxlbmd0aEFkanVzdD0ic3BhY2luZyIgdGV4dExlbmd0aD0iNDIiIHg9IjEwMy43NSIgeT0iMjY0LjI0MjIiPkNvdXJzZTwvdGV4dD48bGluZSBzdHlsZT0ic3Ryb2tlOiMxODE4MTg7c3Ryb2tlLXdpZHRoOjAuNTsiIHgxPSI2Ny41IiB4Mj0iMTU0LjUiIHkxPSIyNzQuNSIgeTI9IjI3NC41Ii8+PHRleHQgZmlsbD0iIzAwMDAwMCIgZm9udC1mYW1pbHk9InNhbnMtc2VyaWYiIGZvbnQtc2l6ZT0iMTQiIGxlbmd0aEFkanVzdD0ic3BhY2luZyIgdGV4dC1kZWNvcmF0aW9uPSJ1bmRlcmxpbmUiIHRleHRMZW5ndGg9IjYzIiB4PSI3Mi41IiB5PSIyOTEuNzM0NCI+Y291cnNlX2lkPC90ZXh0Pjx0ZXh0IGZpbGw9IiMwMDAwMDAiIGZvbnQtZmFtaWx5PSJzYW5zLXNlcmlmIiBmb250LXNpemU9IjE0IiBsZW5ndGhBZGp1c3Q9InNwYWNpbmciIHRleHRMZW5ndGg9IjI4IiB4PSI3Mi41IiB5PSIzMDYuNzE4OCI+bmFtZTwvdGV4dD48dGV4dCBmaWxsPSIjMDAwMDAwIiBmb250LWZhbWlseT0ic2Fucy1zZXJpZiIgZm9udC1zaXplPSIxNCIgbGVuZ3RoQWRqdXN0PSJzcGFjaW5nIiB0ZXh0TGVuZ3RoPSIzNSIgeD0iNzIuNSIgeT0iMzIxLjcwMzEiPmxldmVsPC90ZXh0Pjx0ZXh0IGZpbGw9IiMwMDAwMDAiIGZvbnQtZmFtaWx5PSJzYW5zLXNlcmlmIiBmb250LXNpemU9IjE0IiBsZW5ndGhBZGp1c3Q9InNwYWNpbmciIHRleHRMZW5ndGg9IjU2IiB4PSI3Mi41IiB5PSIzMzYuNjg3NSI+bGFuZ3VhZ2U8L3RleHQ+PHRleHQgZmlsbD0iIzAwMDAwMCIgZm9udC1mYW1pbHk9InNhbnMtc2VyaWYiIGZvbnQtc2l6ZT0iMTQiIGxlbmd0aEFkanVzdD0ic3BhY2luZyIgdGV4dExlbmd0aD0iNzciIHg9IjcyLjUiIHk9IjM1MS42NzE5Ij5kZXNjcmlwdGlvbjwvdGV4dD48bGluZSBzdHlsZT0ic3Ryb2tlOiMxODE4MTg7c3Ryb2tlLXdpZHRoOjAuNTsiIHgxPSI2Ny41IiB4Mj0iMTU0LjUiIHkxPSIzNTcuNDIxOSIgeTI9IjM1Ny40MjE5Ii8+PC9nPjwhLS1jbGFzcyBMZWFybmluZ01hdGVyaWFsLS0+PGcgY2xhc3M9ImVudGl0eSIgZGF0YS1lbnRpdHk9IkxlYXJuaW5nTWF0ZXJpYWwiIGRhdGEtc291cmNlLWxpbmU9IjMyIiBkYXRhLXVpZD0iZW50MDAwNSIgaWQ9ImVudGl0eV9MZWFybmluZ01hdGVyaWFsIj48cmVjdCBmaWxsPSIjRjFGMUYxIiBoZWlnaHQ9IjEyMi45MjE5IiByeD0iMi41IiByeT0iMi41IiBzdHlsZT0ic3Ryb2tlOiMxODE4MTg7c3Ryb2tlLXdpZHRoOjAuNTsiIHdpZHRoPSIxNTkiIHg9IjI4Ny41IiB5PSI0NDEuNSIvPjxlbGxpcHNlIGN4PSIzMDkuMjUiIGN5PSI0NTcuNSIgZmlsbD0iI0ZGQUFBQSIgcng9IjExIiByeT0iMTEiIHN0eWxlPSJzdHJva2U6IzE4MTgxODtzdHJva2Utd2lkdGg6MTsiLz48cGF0aCBkPSJNMzEzLjQzNzUsNDU0LjQzNzUgTDMxMy40Mzc1LDQ1Mi42ODc1IEwzMDUuMzEyNSw0NTIuNjg3NSBMMzA1LjMxMjUsNDU0LjQzNzUgTDMwOC41LDQ1NC40Mzc1IEwzMDguNSw0NjQgTDMxMC4yNSw0NjQgTDMxMC4yNSw0NTQuNDM3NSBMMzEzLjQzNzUsNDU0LjQzNzUgWiAiIGZpbGw9IiMwMDAwMDAiLz48dGV4dCBmaWxsPSIjMDAwMDAwIiBmb250LWZhbWlseT0ic2Fucy1zZXJpZiIgZm9udC1zaXplPSIxNCIgbGVuZ3RoQWRqdXN0PSJzcGFjaW5nIiB0ZXh0TGVuZ3RoPSIxMTIiIHg9IjMyNC43NSIgeT0iNDYzLjI0MjIiPkxlYXJuaW5nTWF0ZXJpYWw8L3RleHQ+PGxpbmUgc3R5bGU9InN0cm9rZTojMTgxODE4O3N0cm9rZS13aWR0aDowLjU7IiB4MT0iMjg4LjUiIHgyPSI0NDUuNSIgeTE9IjQ3My41IiB5Mj0iNDczLjUiLz48dGV4dCBmaWxsPSIjMDAwMDAwIiBmb250LWZhbWlseT0ic2Fucy1zZXJpZiIgZm9udC1zaXplPSIxNCIgbGVuZ3RoQWRqdXN0PSJzcGFjaW5nIiB0ZXh0LWRlY29yYXRpb249InVuZGVybGluZSIgdGV4dExlbmd0aD0iNzciIHg9IjI5My41IiB5PSI0OTAuNzM0NCI+bWF0ZXJpYWxfaWQ8L3RleHQ+PHRleHQgZmlsbD0iIzAwMDAwMCIgZm9udC1mYW1pbHk9InNhbnMtc2VyaWYiIGZvbnQtc2l6ZT0iMTQiIGZvbnQtc3R5bGU9Iml0YWxpYyIgbGVuZ3RoQWRqdXN0PSJzcGFjaW5nIiB0ZXh0TGVuZ3RoPSI2MyIgeD0iMjkzLjUiIHk9IjUwNS43MTg4Ij5jb3Vyc2VfaWQ8L3RleHQ+PHRleHQgZmlsbD0iIzAwMDAwMCIgZm9udC1mYW1pbHk9InNhbnMtc2VyaWYiIGZvbnQtc2l6ZT0iMTQiIGxlbmd0aEFkanVzdD0ic3BhY2luZyIgdGV4dExlbmd0aD0iMjgiIHg9IjI5My41IiB5PSI1MjAuNzAzMSI+dHlwZTwvdGV4dD48dGV4dCBmaWxsPSIjMDAwMDAwIiBmb250LWZhbWlseT0ic2Fucy1zZXJpZiIgZm9udC1zaXplPSIxNCIgbGVuZ3RoQWRqdXN0PSJzcGFjaW5nIiB0ZXh0TGVuZ3RoPSI3NyIgeD0iMjkzLjUiIHk9IjUzNS42ODc1Ij5jb250ZW50X3VybDwvdGV4dD48dGV4dCBmaWxsPSIjMDAwMDAwIiBmb250LWZhbWlseT0ic2Fucy1zZXJpZiIgZm9udC1zaXplPSIxNCIgZm9udC1zdHlsZT0iaXRhbGljIiBsZW5ndGhBZGp1c3Q9InNwYWNpbmciIHRleHRMZW5ndGg9IjE0NyIgeD0iMjkzLjUiIHk9IjU1MC42NzE5Ij5jcmVhdGVkX2J5X3RlYWNoZXJfaWQ8L3RleHQ+PGxpbmUgc3R5bGU9InN0cm9rZTojMTgxODE4O3N0cm9rZS13aWR0aDowLjU7IiB4MT0iMjg4LjUiIHgyPSI0NDUuNSIgeTE9IjU1Ni40MjE5IiB5Mj0iNTU2LjQyMTkiLz48L2c+PCEtLWNsYXNzIFRlc3RSZXN1bHQtLT48ZyBjbGFzcz0iZW50aXR5IiBkYXRhLWVudGl0eT0iVGVzdFJlc3VsdCIgZGF0YS1zb3VyY2UtbGluZT0iNDAiIGRhdGEtdWlkPSJlbnQwMDA2IiBpZD0iZW50aXR5X1Rlc3RSZXN1bHQiPjxyZWN0IGZpbGw9IiNGMUYxRjEiIGhlaWdodD0iMTM3LjkwNjMiIHJ4PSIyLjUiIHJ5PSIyLjUiIHN0eWxlPSJzdHJva2U6IzE4MTgxODtzdHJva2Utd2lkdGg6MC41OyIgd2lkdGg9IjEwMiIgeD0iNyIgeT0iNDM0Ii8+PGVsbGlwc2UgY3g9IjIyIiBjeT0iNDUwIiBmaWxsPSIjRkZBQUFBIiByeD0iMTEiIHJ5PSIxMSIgc3R5bGU9InN0cm9rZTojMTgxODE4O3N0cm9rZS13aWR0aDoxOyIvPjxwYXRoIGQ9Ik0yNi4xODc1LDQ0Ni45Mzc1IEwyNi4xODc1LDQ0NS4xODc1IEwxOC4wNjI1LDQ0NS4xODc1IEwxOC4wNjI1LDQ0Ni45Mzc1IEwyMS4yNSw0NDYuOTM3NSBMMjEuMjUsNDU2LjUgTDIzLDQ1Ni41IEwyMyw0NDYuOTM3NSBMMjYuMTg3NSw0NDYuOTM3NSBaICIgZmlsbD0iIzAwMDAwMCIvPjx0ZXh0IGZpbGw9IiMwMDAwMDAiIGZvbnQtZmFtaWx5PSJzYW5zLXNlcmlmIiBmb250LXNpemU9IjE0IiBsZW5ndGhBZGp1c3Q9InNwYWNpbmciIHRleHRMZW5ndGg9IjcwIiB4PSIzNiIgeT0iNDU1Ljc0MjIiPlRlc3RSZXN1bHQ8L3RleHQ+PGxpbmUgc3R5bGU9InN0cm9rZTojMTgxODE4O3N0cm9rZS13aWR0aDowLjU7IiB4MT0iOCIgeDI9IjEwOCIgeTE9IjQ2NiIgeTI9IjQ2NiIvPjx0ZXh0IGZpbGw9IiMwMDAwMDAiIGZvbnQtZmFtaWx5PSJzYW5zLXNlcmlmIiBmb250LXNpemU9IjE0IiBsZW5ndGhBZGp1c3Q9InNwYWNpbmciIHRleHQtZGVjb3JhdGlvbj0idW5kZXJsaW5lIiB0ZXh0TGVuZ3RoPSI2MyIgeD0iMTMiIHk9IjQ4My4yMzQ0Ij5yZXN1bHRfaWQ8L3RleHQ+PHRleHQgZmlsbD0iIzAwMDAwMCIgZm9udC1mYW1pbHk9InNhbnMtc2VyaWYiIGZvbnQtc2l6ZT0iMTQiIGZvbnQtc3R5bGU9Iml0YWxpYyIgbGVuZ3RoQWRqdXN0PSJzcGFjaW5nIiB0ZXh0TGVuZ3RoPSI3MCIgeD0iMTMiIHk9IjQ5OC4yMTg4Ij5zdHVkZW50X2lkPC90ZXh0Pjx0ZXh0IGZpbGw9IiMwMDAwMDAiIGZvbnQtZmFtaWx5PSJzYW5zLXNlcmlmIiBmb250LXNpemU9IjE0IiBmb250LXN0eWxlPSJpdGFsaWMiIGxlbmd0aEFkanVzdD0ic3BhY2luZyIgdGV4dExlbmd0aD0iNjMiIHg9IjEzIiB5PSI1MTMuMjAzMSI+Y291cnNlX2lkPC90ZXh0Pjx0ZXh0IGZpbGw9IiMwMDAwMDAiIGZvbnQtZmFtaWx5PSJzYW5zLXNlcmlmIiBmb250LXNpemU9IjE0IiBsZW5ndGhBZGp1c3Q9InNwYWNpbmciIHRleHRMZW5ndGg9IjM1IiB4PSIxMyIgeT0iNTI4LjE4NzUiPnNjb3JlPC90ZXh0Pjx0ZXh0IGZpbGw9IiMwMDAwMDAiIGZvbnQtZmFtaWx5PSJzYW5zLXNlcmlmIiBmb250LXNpemU9IjE0IiBsZW5ndGhBZGp1c3Q9InNwYWNpbmciIHRleHRMZW5ndGg9IjcwIiB4PSIxMyIgeT0iNTQzLjE3MTkiPmRhdGVfdGFrZW48L3RleHQ+PHRleHQgZmlsbD0iIzAwMDAwMCIgZm9udC1mYW1pbHk9InNhbnMtc2VyaWYiIGZvbnQtc2l6ZT0iMTQiIGxlbmd0aEFkanVzdD0ic3BhY2luZyIgdGV4dExlbmd0aD0iNDIiIHg9IjEzIiB5PSI1NTguMTU2MyI+cmF0aW5nPC90ZXh0PjxsaW5lIHN0eWxlPSJzdHJva2U6IzE4MTgxODtzdHJva2Utd2lkdGg6MC41OyIgeDE9IjgiIHgyPSIxMDgiIHkxPSI1NjMuOTA2MyIgeTI9IjU2My45MDYzIi8+PC9nPjwhLS1jbGFzcyBGZWVkYmFjay0tPjxnIGNsYXNzPSJlbnRpdHkiIGRhdGEtZW50aXR5PSJGZWVkYmFjayIgZGF0YS1zb3VyY2UtbGluZT0iNDkiIGRhdGEtdWlkPSJlbnQwMDA3IiBpZD0iZW50aXR5X0ZlZWRiYWNrIj48cmVjdCBmaWxsPSIjRjFGMUYxIiBoZWlnaHQ9IjEyMi45MjE5IiByeD0iMi41IiByeT0iMi41IiBzdHlsZT0ic3Ryb2tlOiMxODE4MTg7c3Ryb2tlLXdpZHRoOjAuNTsiIHdpZHRoPSI4OSIgeD0iMTkwLjUiIHk9IjI0Mi41Ii8+PGVsbGlwc2UgY3g9IjIwNS45NSIgY3k9IjI1OC41IiBmaWxsPSIjRkZBQUFBIiByeD0iMTEiIHJ5PSIxMSIgc3R5bGU9InN0cm9rZTojMTgxODE4O3N0cm9rZS13aWR0aDoxOyIvPjxwYXRoIGQ9Ik0yMTAuMTM3NSwyNTUuNDM3NSBMMjEwLjEzNzUsMjUzLjY4NzUgTDIwMi4wMTI1LDI1My42ODc1IEwyMDIuMDEyNSwyNTUuNDM3NSBMMjA1LjIsMjU1LjQzNzUgTDIwNS4yLDI2NSBMMjA2Ljk1LDI2NSBMMjA2Ljk1LDI1NS40Mzc1IEwyMTAuMTM3NSwyNTUuNDM3NSBaICIgZmlsbD0iIzAwMDAwMCIvPjx0ZXh0IGZpbGw9IiMwMDAwMDAiIGZvbnQtZmFtaWx5PSJzYW5zLXNlcmlmIiBmb250LXNpemU9IjE0IiBsZW5ndGhBZGp1c3Q9InNwYWNpbmciIHRleHRMZW5ndGg9IjU2IiB4PSIyMjAuMDUiIHk9IjI2NC4yNDIyIj5GZWVkYmFjazwvdGV4dD48bGluZSBzdHlsZT0ic3Ryb2tlOiMxODE4MTg7c3Ryb2tlLXdpZHRoOjAuNTsiIHgxPSIxOTEuNSIgeDI9IjI3OC41IiB5MT0iMjc0LjUiIHkyPSIyNzQuNSIvPjx0ZXh0IGZpbGw9IiMwMDAwMDAiIGZvbnQtZmFtaWx5PSJzYW5zLXNlcmlmIiBmb250LXNpemU9IjE0IiBsZW5ndGhBZGp1c3Q9InNwYWNpbmciIHRleHQtZGVjb3JhdGlvbj0idW5kZXJsaW5lIiB0ZXh0TGVuZ3RoPSI3NyIgeD0iMTk2LjUiIHk9IjI5MS43MzQ0Ij5mZWVkYmFja19pZDwvdGV4dD48dGV4dCBmaWxsPSIjMDAwMDAwIiBmb250LWZhbWlseT0ic2Fucy1zZXJpZiIgZm9udC1zaXplPSIxNCIgZm9udC1zdHlsZT0iaXRhbGljIiBsZW5ndGhBZGp1c3Q9InNwYWNpbmciIHRleHRMZW5ndGg9IjcwIiB4PSIxOTYuNSIgeT0iMzA2LjcxODgiPnN0dWRlbnRfaWQ8L3RleHQ+PHRleHQgZmlsbD0iIzAwMDAwMCIgZm9udC1mYW1pbHk9InNhbnMtc2VyaWYiIGZvbnQtc2l6ZT0iMTQiIGxlbmd0aEFkanVzdD0ic3BhY2luZyIgdGV4dExlbmd0aD0iNDkiIHg9IjE5Ni41IiB5PSIzMjEuNzAzMSI+bWVzc2FnZTwvdGV4dD48dGV4dCBmaWxsPSIjMDAwMDAwIiBmb250LWZhbWlseT0ic2Fucy1zZXJpZiIgZm9udC1zaXplPSIxNCIgbGVuZ3RoQWRqdXN0PSJzcGFjaW5nIiB0ZXh0TGVuZ3RoPSI2MyIgeD0iMTk2LjUiIHk9IjMzNi42ODc1Ij50aW1lc3RhbXA8L3RleHQ+PHRleHQgZmlsbD0iIzAwMDAwMCIgZm9udC1mYW1pbHk9InNhbnMtc2VyaWYiIGZvbnQtc2l6ZT0iMTQiIGxlbmd0aEFkanVzdD0ic3BhY2luZyIgdGV4dExlbmd0aD0iNDIiIHg9IjE5Ni41IiB5PSIzNTEuNjcxOSI+cmF0aW5nPC90ZXh0PjxsaW5lIHN0eWxlPSJzdHJva2U6IzE4MTgxODtzdHJva2Utd2lkdGg6MC41OyIgeDE9IjE5MS41IiB4Mj0iMjc4LjUiIHkxPSIzNTcuNDIxOSIgeTI9IjM1Ny40MjE5Ii8+PC9nPjwhLS1jbGFzcyBQYXltZW50LS0+PGcgY2xhc3M9ImVudGl0eSIgZGF0YS1lbnRpdHk9IlBheW1lbnQiIGRhdGEtc291cmNlLWxpbmU9IjU3IiBkYXRhLXVpZD0iZW50MDAwOCIgaWQ9ImVudGl0eV9QYXltZW50Ij48cmVjdCBmaWxsPSIjRjFGMUYxIiBoZWlnaHQ9IjEzNy45MDYzIiByeD0iMi41IiByeT0iMi41IiBzdHlsZT0ic3Ryb2tlOiMxODE4MTg7c3Ryb2tlLXdpZHRoOjAuNTsiIHdpZHRoPSIxMTciIHg9IjMxNC41IiB5PSIyMzUiLz48ZWxsaXBzZSBjeD0iMzQ1LjciIGN5PSIyNTEiIGZpbGw9IiNGRkFBQUEiIHJ4PSIxMSIgcnk9IjExIiBzdHlsZT0ic3Ryb2tlOiMxODE4MTg7c3Ryb2tlLXdpZHRoOjE7Ii8+PHBhdGggZD0iTTM0OS44ODc1LDI0Ny45Mzc1IEwzNDkuODg3NSwyNDYuMTg3NSBMMzQxLjc2MjUsMjQ2LjE4NzUgTDM0MS43NjI1LDI0Ny45Mzc1IEwzNDQuOTUsMjQ3LjkzNzUgTDM0NC45NSwyNTcuNSBMMzQ2LjcsMjU3LjUgTDM0Ni43LDI0Ny45Mzc1IEwzNDkuODg3NSwyNDcuOTM3NSBaICIgZmlsbD0iIzAwMDAwMCIvPjx0ZXh0IGZpbGw9IiMwMDAwMDAiIGZvbnQtZmFtaWx5PSJzYW5zLXNlcmlmIiBmb250LXNpemU9IjE0IiBsZW5ndGhBZGp1c3Q9InNwYWNpbmciIHRleHRMZW5ndGg9IjQ5IiB4PSIzNjMuMyIgeT0iMjU2Ljc0MjIiPlBheW1lbnQ8L3RleHQ+PGxpbmUgc3R5bGU9InN0cm9rZTojMTgxODE4O3N0cm9rZS13aWR0aDowLjU7IiB4MT0iMzE1LjUiIHgyPSI0MzAuNSIgeTE9IjI2NyIgeTI9IjI2NyIvPjx0ZXh0IGZpbGw9IiMwMDAwMDAiIGZvbnQtZmFtaWx5PSJzYW5zLXNlcmlmIiBmb250LXNpemU9IjE0IiBsZW5ndGhBZGp1c3Q9InNwYWNpbmciIHRleHQtZGVjb3JhdGlvbj0idW5kZXJsaW5lIiB0ZXh0TGVuZ3RoPSI3MCIgeD0iMzIwLjUiIHk9IjI4NC4yMzQ0Ij5wYXltZW50X2lkPC90ZXh0Pjx0ZXh0IGZpbGw9IiMwMDAwMDAiIGZvbnQtZmFtaWx5PSJzYW5zLXNlcmlmIiBmb250LXNpemU9IjE0IiBmb250LXN0eWxlPSJpdGFsaWMiIGxlbmd0aEFkanVzdD0ic3BhY2luZyIgdGV4dExlbmd0aD0iNzAiIHg9IjMyMC41IiB5PSIyOTkuMjE4OCI+c3R1ZGVudF9pZDwvdGV4dD48dGV4dCBmaWxsPSIjMDAwMDAwIiBmb250LWZhbWlseT0ic2Fucy1zZXJpZiIgZm9udC1zaXplPSIxNCIgbGVuZ3RoQWRqdXN0PSJzcGFjaW5nIiB0ZXh0TGVuZ3RoPSI0MiIgeD0iMzIwLjUiIHk9IjMxNC4yMDMxIj5hbW91bnQ8L3RleHQ+PHRleHQgZmlsbD0iIzAwMDAwMCIgZm9udC1mYW1pbHk9InNhbnMtc2VyaWYiIGZvbnQtc2l6ZT0iMTQiIGxlbmd0aEFkanVzdD0ic3BhY2luZyIgdGV4dExlbmd0aD0iMjgiIHg9IjMyMC41IiB5PSIzMjkuMTg3NSI+ZGF0ZTwvdGV4dD48dGV4dCBmaWxsPSIjMDAwMDAwIiBmb250LWZhbWlseT0ic2Fucy1zZXJpZiIgZm9udC1zaXplPSIxNCIgbGVuZ3RoQWRqdXN0PSJzcGFjaW5nIiB0ZXh0TGVuZ3RoPSIxMDUiIHg9IjMyMC41IiB5PSIzNDQuMTcxOSI+cGF5bWVudF9nYXRld2F5PC90ZXh0Pjx0ZXh0IGZpbGw9IiMwMDAwMDAiIGZvbnQtZmFtaWx5PSJzYW5zLXNlcmlmIiBmb250LXNpemU9IjE0IiBsZW5ndGhBZGp1c3Q9InNwYWNpbmciIHRleHRMZW5ndGg9Ijk4IiB4PSIzMjAuNSIgeT0iMzU5LjE1NjMiPnJlY2VpcHRfbnVtYmVyPC90ZXh0PjxsaW5lIHN0eWxlPSJzdHJva2U6IzE4MTgxODtzdHJva2Utd2lkdGg6MC41OyIgeDE9IjMxNS41IiB4Mj0iNDMwLjUiIHkxPSIzNjQuOTA2MyIgeTI9IjM2NC45MDYzIi8+PC9nPjwhLS1jbGFzcyBWb2ljZUNvbW1hbmQtLT48ZyBjbGFzcz0iZW50aXR5IiBkYXRhLWVudGl0eT0iVm9pY2VDb21tYW5kIiBkYXRhLXNvdXJjZS1saW5lPSI2NiIgZGF0YS11aWQ9ImVudDAwMDkiIGlkPSJlbnRpdHlfVm9pY2VDb21tYW5kIj48cmVjdCBmaWxsPSIjRjFGMUYxIiBoZWlnaHQ9IjEyMi45MjE5IiByeD0iMi41IiByeT0iMi41IiBzdHlsZT0ic3Ryb2tlOiMxODE4MTg7c3Ryb2tlLXdpZHRoOjAuNTsiIHdpZHRoPSIxMzEiIHg9IjQ2Ni41IiB5PSIyNDIuNSIvPjxlbGxpcHNlIGN4PSI0ODguMjUiIGN5PSIyNTguNSIgZmlsbD0iI0ZGQUFBQSIgcng9IjExIiByeT0iMTEiIHN0eWxlPSJzdHJva2U6IzE4MTgxODtzdHJva2Utd2lkdGg6MTsiLz48cGF0aCBkPSJNNDkyLjQzNzUsMjU1LjQzNzUgTDQ5Mi40Mzc1LDI1My42ODc1IEw0ODQuMzEyNSwyNTMuNjg3NSBMNDg0LjMxMjUsMjU1LjQzNzUgTDQ4Ny41LDI1NS40Mzc1IEw0ODcuNSwyNjUgTDQ4OS4yNSwyNjUgTDQ4OS4yNSwyNTUuNDM3NSBMNDkyLjQzNzUsMjU1LjQzNzUgWiAiIGZpbGw9IiMwMDAwMDAiLz48dGV4dCBmaWxsPSIjMDAwMDAwIiBmb250LWZhbWlseT0ic2Fucy1zZXJpZiIgZm9udC1zaXplPSIxNCIgbGVuZ3RoQWRqdXN0PSJzcGFjaW5nIiB0ZXh0TGVuZ3RoPSI4NCIgeD0iNTAzLjc1IiB5PSIyNjQuMjQyMiI+Vm9pY2VDb21tYW5kPC90ZXh0PjxsaW5lIHN0eWxlPSJzdHJva2U6IzE4MTgxODtzdHJva2Utd2lkdGg6MC41OyIgeDE9IjQ2Ny41IiB4Mj0iNTk2LjUiIHkxPSIyNzQuNSIgeTI9IjI3NC41Ii8+PHRleHQgZmlsbD0iIzAwMDAwMCIgZm9udC1mYW1pbHk9InNhbnMtc2VyaWYiIGZvbnQtc2l6ZT0iMTQiIGxlbmd0aEFkanVzdD0ic3BhY2luZyIgdGV4dC1kZWNvcmF0aW9uPSJ1bmRlcmxpbmUiIHRleHRMZW5ndGg9IjcwIiB4PSI0NzIuNSIgeT0iMjkxLjczNDQiPmNvbW1hbmRfaWQ8L3RleHQ+PHRleHQgZmlsbD0iIzAwMDAwMCIgZm9udC1mYW1pbHk9InNhbnMtc2VyaWYiIGZvbnQtc2l6ZT0iMTQiIGZvbnQtc3R5bGU9Iml0YWxpYyIgbGVuZ3RoQWRqdXN0PSJzcGFjaW5nIiB0ZXh0TGVuZ3RoPSI3MCIgeD0iNDcyLjUiIHk9IjMwNi43MTg4Ij5zdHVkZW50X2lkPC90ZXh0Pjx0ZXh0IGZpbGw9IiMwMDAwMDAiIGZvbnQtZmFtaWx5PSJzYW5zLXNlcmlmIiBmb250LXNpemU9IjE0IiBsZW5ndGhBZGp1c3Q9InNwYWNpbmciIHRleHRMZW5ndGg9Ijg0IiB4PSI0NzIuNSIgeT0iMzIxLjcwMzEiPmNvbW1hbmRfdGV4dDwvdGV4dD48dGV4dCBmaWxsPSIjMDAwMDAwIiBmb250LWZhbWlseT0ic2Fucy1zZXJpZiIgZm9udC1zaXplPSIxNCIgbGVuZ3RoQWRqdXN0PSJzcGFjaW5nIiB0ZXh0TGVuZ3RoPSI2MyIgeD0iNDcyLjUiIHk9IjMzNi42ODc1Ij50aW1lc3RhbXA8L3RleHQ+PHRleHQgZmlsbD0iIzAwMDAwMCIgZm9udC1mYW1pbHk9InNhbnMtc2VyaWYiIGZvbnQtc2l6ZT0iMTQiIGxlbmd0aEFkanVzdD0ic3BhY2luZyIgdGV4dExlbmd0aD0iMTE5IiB4PSI0NzIuNSIgeT0iMzUxLjY3MTkiPnJlY29nbml6ZWRfYWN0aW9uPC90ZXh0PjxsaW5lIHN0eWxlPSJzdHJva2U6IzE4MTgxODtzdHJva2Utd2lkdGg6MC41OyIgeDE9IjQ2Ny41IiB4Mj0iNTk2LjUiIHkxPSIzNTcuNDIxOSIgeTI9IjM1Ny40MjE5Ii8+PC9nPjwhLS1jbGFzcyBBZG1pblJlcG9ydC0tPjxnIGNsYXNzPSJlbnRpdHkiIGRhdGEtZW50aXR5PSJBZG1pblJlcG9ydCIgZGF0YS1zb3VyY2UtbGluZT0iNzQiIGRhdGEtdWlkPSJlbnQwMDEwIiBpZD0iZW50aXR5X0FkbWluUmVwb3J0Ij48cmVjdCBmaWxsPSIjRjFGMUYxIiBoZWlnaHQ9IjEwNy45Mzc1IiByeD0iMi41IiByeT0iMi41IiBzdHlsZT0ic3Ryb2tlOiMxODE4MTg7c3Ryb2tlLXdpZHRoOjAuNTsiIHdpZHRoPSIxMDkiIHg9IjY0MC41IiB5PSI0NDkiLz48ZWxsaXBzZSBjeD0iNjU1LjUiIGN5PSI0NjUiIGZpbGw9IiNGRkFBQUEiIHJ4PSIxMSIgcnk9IjExIiBzdHlsZT0ic3Ryb2tlOiMxODE4MTg7c3Ryb2tlLXdpZHRoOjE7Ii8+PHBhdGggZD0iTTY1OS42ODc1LDQ2MS45Mzc1IEw2NTkuNjg3NSw0NjAuMTg3NSBMNjUxLjU2MjUsNDYwLjE4NzUgTDY1MS41NjI1LDQ2MS45Mzc1IEw2NTQuNzUsNDYxLjkzNzUgTDY1NC43NSw0NzEuNSBMNjU2LjUsNDcxLjUgTDY1Ni41LDQ2MS45Mzc1IEw2NTkuNjg3NSw0NjEuOTM3NSBaICIgZmlsbD0iIzAwMDAwMCIvPjx0ZXh0IGZpbGw9IiMwMDAwMDAiIGZvbnQtZmFtaWx5PSJzYW5zLXNlcmlmIiBmb250LXNpemU9IjE0IiBsZW5ndGhBZGp1c3Q9InNwYWNpbmciIHRleHRMZW5ndGg9Ijc3IiB4PSI2NjkuNSIgeT0iNDcwLjc0MjIiPkFkbWluUmVwb3J0PC90ZXh0PjxsaW5lIHN0eWxlPSJzdHJva2U6IzE4MTgxODtzdHJva2Utd2lkdGg6MC41OyIgeDE9IjY0MS41IiB4Mj0iNzQ4LjUiIHkxPSI0ODEiIHkyPSI0ODEiLz48dGV4dCBmaWxsPSIjMDAwMDAwIiBmb250LWZhbWlseT0ic2Fucy1zZXJpZiIgZm9udC1zaXplPSIxNCIgbGVuZ3RoQWRqdXN0PSJzcGFjaW5nIiB0ZXh0LWRlY29yYXRpb249InVuZGVybGluZSIgdGV4dExlbmd0aD0iNjMiIHg9IjY0Ni41IiB5PSI0OTguMjM0NCI+cmVwb3J0X2lkPC90ZXh0Pjx0ZXh0IGZpbGw9IiMwMDAwMDAiIGZvbnQtZmFtaWx5PSJzYW5zLXNlcmlmIiBmb250LXNpemU9IjE0IiBmb250LXN0eWxlPSJpdGFsaWMiIGxlbmd0aEFkanVzdD0ic3BhY2luZyIgdGV4dExlbmd0aD0iODQiIHg9IjY0Ni41IiB5PSI1MTMuMjE4OCI+Z2VuZXJhdGVkX2J5PC90ZXh0Pjx0ZXh0IGZpbGw9IiMwMDAwMDAiIGZvbnQtZmFtaWx5PSJzYW5zLXNlcmlmIiBmb250LXNpemU9IjE0IiBsZW5ndGhBZGp1c3Q9InNwYWNpbmciIHRleHRMZW5ndGg9Ijc3IiB4PSI2NDYuNSIgeT0iNTI4LjIwMzEiPmRlc2NyaXB0aW9uPC90ZXh0Pjx0ZXh0IGZpbGw9IiMwMDAwMDAiIGZvbnQtZmFtaWx5PSJzYW5zLXNlcmlmIiBmb250LXNpemU9IjE0IiBsZW5ndGhBZGp1c3Q9InNwYWNpbmciIHRleHRMZW5ndGg9Ijg0IiB4PSI2NDYuNSIgeT0iNTQzLjE4NzUiPmRhdGVfY3JlYXRlZDwvdGV4dD48bGluZSBzdHlsZT0ic3Ryb2tlOiMxODE4MTg7c3Ryb2tlLXdpZHRoOjAuNTsiIHgxPSI2NDEuNSIgeDI9Ijc0OC41IiB5MT0iNTQ4LjkzNzUiIHkyPSI1NDguOTM3NSIvPjwvZz48IS0tbGluayBTdHVkZW50IHRvIFRlc3RSZXN1bHQtLT48ZyBjbGFzcz0ibGluayIgZGF0YS1lbnRpdHktMT0iU3R1ZGVudCIgZGF0YS1lbnRpdHktMj0iVGVzdFJlc3VsdCIgZGF0YS1zb3VyY2UtbGluZT0iODIiIGRhdGEtdWlkPSJsbmsxMSIgaWQ9ImxpbmtfU3R1ZGVudF9UZXN0UmVzdWx0Ij48cGF0aCBjb2RlTGluZT0iODIiIGQ9Ik0xNjkuMDgsMTE3LjcgQzEyNi4xOSwxNDMuMjkgNzMuNzgsMTgzLjA4IDQ5LDIzNSBDMTkuMjQsMjk3LjM3IDI1LjUyMSwzNjkuNzYxOCAzNy4zNTEsNDI1LjkyMTgiIGZpbGw9Im5vbmUiIGlkPSJTdHVkZW50LXRvLVRlc3RSZXN1bHQiIHN0eWxlPSJzdHJva2U6IzE4MTgxODtzdHJva2Utd2lkdGg6MTsiLz48bGluZSBzdHlsZT0ic3Ryb2tlOiMxODE4MTg7c3Ryb2tlLXdpZHRoOjE7IiB4MT0iMzcuMzUxIiB4Mj0iNDYuODI4MiIgeTE9IjQyNS45MjE4IiB5Mj0iNDMzLjc1Ii8+PGxpbmUgc3R5bGU9InN0cm9rZTojMTgxODE4O3N0cm9rZS13aWR0aDoxOyIgeDE9IjM3LjM1MSIgeDI9IjMxLjE3MTgiIHkxPSI0MjUuOTIxOCIgeTI9IjQzMy43NSIvPjxsaW5lIHN0eWxlPSJzdHJva2U6IzE4MTgxODtzdHJva2Utd2lkdGg6MTsiIHgxPSIzNy4zNTEiIHgyPSIzOSIgeTE9IjQyNS45MjE4IiB5Mj0iNDMzLjc1Ii8+PC9nPjwhLS1saW5rIFN0dWRlbnQgdG8gRmVlZGJhY2stLT48ZyBjbGFzcz0ibGluayIgZGF0YS1lbnRpdHktMT0iU3R1ZGVudCIgZGF0YS1lbnRpdHktMj0iRmVlZGJhY2siIGRhdGEtc291cmNlLWxpbmU9IjgzIiBkYXRhLXVpZD0ibG5rMTIiIGlkPSJsaW5rX1N0dWRlbnRfRmVlZGJhY2siPjxwYXRoIGNvZGVMaW5lPSI4MyIgZD0iTTIzNSwxNjAgQzIzNSwxODYuODkgMjM1LDIwOC44MSAyMzUsMjM0LjMiIGZpbGw9Im5vbmUiIGlkPSJTdHVkZW50LXRvLUZlZWRiYWNrIiBzdHlsZT0ic3Ryb2tlOiMxODE4MTg7c3Ryb2tlLXdpZHRoOjE7Ii8+PGxpbmUgc3R5bGU9InN0cm9rZTojMTgxODE4O3N0cm9rZS13aWR0aDoxOyIgeDE9IjIzNSIgeDI9IjI0MyIgeTE9IjIzNC4zIiB5Mj0iMjQyLjMiLz48bGluZSBzdHlsZT0ic3Ryb2tlOiMxODE4MTg7c3Ryb2tlLXdpZHRoOjE7IiB4MT0iMjM1IiB4Mj0iMjI3IiB5MT0iMjM0LjMiIHkyPSIyNDIuMyIvPjxsaW5lIHN0eWxlPSJzdHJva2U6IzE4MTgxODtzdHJva2Utd2lkdGg6MTsiIHgxPSIyMzUiIHgyPSIyMzUiIHkxPSIyMzQuMyIgeTI9IjI0Mi4zIi8+PC9nPjwhLS1saW5rIFN0dWRlbnQgdG8gUGF5bWVudC0tPjxnIGNsYXNzPSJsaW5rIiBkYXRhLWVudGl0eS0xPSJTdHVkZW50IiBkYXRhLWVudGl0eS0yPSJQYXltZW50IiBkYXRhLXNvdXJjZS1saW5lPSI4NCIgZGF0YS11aWQ9ImxuazEzIiBpZD0ibGlua19TdHVkZW50X1BheW1lbnQiPjxwYXRoIGNvZGVMaW5lPSI4NCIgZD0iTTI4Mi42OSwxNjAgQzI5OC4wMywxODQuMyAzMTAuNjY2OCwyMDQuMzA2OSAzMjUuNjY2OCwyMjguMDQ2OSIgZmlsbD0ibm9uZSIgaWQ9IlN0dWRlbnQtdG8tUGF5bWVudCIgc3R5bGU9InN0cm9rZTojMTgxODE4O3N0cm9rZS13aWR0aDoxOyIvPjxsaW5lIHN0eWxlPSJzdHJva2U6IzE4MTgxODtzdHJva2Utd2lkdGg6MTsiIHgxPSIzMjUuNjY2OCIgeDI9IjMzNi43MDMxIiB5MT0iMjI4LjA0NjkiIHkyPSIyMzQuODEiLz48bGluZSBzdHlsZT0ic3Ryb2tlOiMxODE4MTg7c3Ryb2tlLXdpZHRoOjE7IiB4MT0iMzI1LjY2NjgiIHgyPSIzMjMuMTc2OSIgeTE9IjIyOC4wNDY5IiB5Mj0iMjM0LjgxIi8+PGxpbmUgc3R5bGU9InN0cm9rZTojMTgxODE4O3N0cm9rZS13aWR0aDoxOyIgeDE9IjMyNS42NjY4IiB4Mj0iMzI5Ljk0IiB5MT0iMjI4LjA0NjkiIHkyPSIyMzQuODEiLz48L2c+PCEtLWxpbmsgU3R1ZGVudCB0byBWb2ljZUNvbW1hbmQtLT48ZyBjbGFzcz0ibGluayIgZGF0YS1lbnRpdHktMT0iU3R1ZGVudCIgZGF0YS1lbnRpdHktMj0iVm9pY2VDb21tYW5kIiBkYXRhLXNvdXJjZS1saW5lPSI4NSIgZGF0YS11aWQ9ImxuazE0IiBpZD0ibGlua19TdHVkZW50X1ZvaWNlQ29tbWFuZCI+PHBhdGggY29kZUxpbmU9Ijg1IiBkPSJNMzAwLjUxLDEyOC43MiBDMzQzLjMzLDE1OC4wOCA0MDAuMTcsMTk3LjkxIDQ0OSwyMzUgQzQ1NC42NCwyMzkuMjggNDU0LjE1OTgsMjM4LjgyMTYgNDU5LjkzOTgsMjQzLjQwMTYiIGZpbGw9Im5vbmUiIGlkPSJTdHVkZW50LXRvLVZvaWNlQ29tbWFuZCIgc3R5bGU9InN0cm9rZTojMTgxODE4O3N0cm9rZS13aWR0aDoxOyIvPjxsaW5lIHN0eWxlPSJzdHJva2U6IzE4MTgxODtzdHJva2Utd2lkdGg6MTsiIHgxPSI0NTkuOTM5OCIgeDI9IjQ2Ni4yMSIgeTE9IjI0My40MDE2IiB5Mj0iMjQyLjA5OTgiLz48bGluZSBzdHlsZT0ic3Ryb2tlOiMxODE4MTg7c3Ryb2tlLXdpZHRoOjE7IiB4MT0iNDU5LjkzOTgiIHgyPSI0NjYuMjEiIHkxPSIyNDMuNDAxNiIgeTI9IjI1NC42NDAyIi8+PGxpbmUgc3R5bGU9InN0cm9rZTojMTgxODE4O3N0cm9rZS13aWR0aDoxOyIgeDE9IjQ1OS45Mzk4IiB4Mj0iNDY2LjIxIiB5MT0iMjQzLjQwMTYiIHkyPSIyNDguMzciLz48L2c+PCEtLWxpbmsgU3R1ZGVudCB0byBDb3Vyc2UtLT48ZyBjbGFzcz0ibGluayIgZGF0YS1lbnRpdHktMT0iU3R1ZGVudCIgZGF0YS1lbnRpdHktMj0iQ291cnNlIiBkYXRhLXNvdXJjZS1saW5lPSI4NiIgZGF0YS11aWQ9ImxuazE1IiBpZD0ibGlua19TdHVkZW50X0NvdXJzZSI+PHBhdGggY29kZUxpbmU9Ijg2IiBkPSJNMTg2LjE3NjgsMTY3LjAzNDcgQzE4MC4zNDY4LDE3Ny4wNTQ3IDE3OC41MSwxODAuMyAxNzMsMTkwIEMxNjMuMzgsMjA2LjkzIDE1Ni45ODczLDIxOC4zODU4IDE0Ny42NTczLDIzNS4zOTU4IiBmaWxsPSJub25lIiBpZD0iU3R1ZGVudC1Db3Vyc2UiIHN0eWxlPSJzdHJva2U6IzE4MTgxODtzdHJva2Utd2lkdGg6MTsiLz48bGluZSBzdHlsZT0ic3Ryb2tlOiMxODE4MTg7c3Ryb2tlLXdpZHRoOjE7IiB4MT0iMTg2LjE3NjgiIHgyPSIxODMuMjg1MyIgeTE9IjE2Ny4wMzQ3IiB5Mj0iMTYwLjEyIi8+PGxpbmUgc3R5bGU9InN0cm9rZTojMTgxODE4O3N0cm9rZS13aWR0aDoxOyIgeDE9IjE4Ni4xNzY4IiB4Mj0iMTk3LjExNDciIHkxPSIxNjcuMDM0NyIgeTI9IjE2MC4xMiIvPjxsaW5lIHN0eWxlPSJzdHJva2U6IzE4MTgxODtzdHJva2Utd2lkdGg6MTsiIHgxPSIxODYuMTc2OCIgeDI9IjE5MC4yIiB5MT0iMTY3LjAzNDciIHkyPSIxNjAuMTIiLz48bGluZSBzdHlsZT0ic3Ryb2tlOiMxODE4MTg7c3Ryb2tlLXdpZHRoOjE7IiB4MT0iMTQ3LjY1NzMiIHgyPSIxNTAuODI0MiIgeTE9IjIzNS4zOTU4IiB5Mj0iMjQyLjQxIi8+PGxpbmUgc3R5bGU9InN0cm9rZTojMTgxODE4O3N0cm9rZS13aWR0aDoxOyIgeDE9IjE0Ny42NTczIiB4Mj0iMTM2Ljc5NTgiIHkxPSIyMzUuMzk1OCIgeTI9IjI0Mi40MSIvPjxsaW5lIHN0eWxlPSJzdHJva2U6IzE4MTgxODtzdHJva2Utd2lkdGg6MTsiIHgxPSIxNDcuNjU3MyIgeDI9IjE0My44MSIgeTE9IjIzNS4zOTU4IiB5Mj0iMjQyLjQxIi8+PHRleHQgZmlsbD0iIzAwMDAwMCIgZm9udC1mYW1pbHk9InNhbnMtc2VyaWYiIGZvbnQtc2l6ZT0iMTMiIGxlbmd0aEFkanVzdD0ic3BhY2luZyIgdGV4dExlbmd0aD0iNTIiIHg9IjE3NCIgeT0iMjAzLjI4OTEiPkVucm9sbGVkPC90ZXh0PjwvZz48IS0tbGluayBUZWFjaGVyIHRvIExlYXJuaW5nTWF0ZXJpYWwtLT48ZyBjbGFzcz0ibGluayIgZGF0YS1lbnRpdHktMT0iVGVhY2hlciIgZGF0YS1lbnRpdHktMj0iTGVhcm5pbmdNYXRlcmlhbCIgZGF0YS1zb3VyY2UtbGluZT0iODgiIGRhdGEtdWlkPSJsbmsxNiIgaWQ9ImxpbmtfVGVhY2hlcl9MZWFybmluZ01hdGVyaWFsIj48cGF0aCBjb2RlTGluZT0iODgiIGQ9Ik02MzIuNzIsMzYwLjE5IEM2MjYuODYsMzY0LjcgNjIwLjksMzY5LjAzIDYxNSwzNzMgQzU2MS40NCw0MDkuMDIgNTAzLjgxMjYsNDM4Ljk5IDQ1My44NjI2LDQ2Mi43OCIgZmlsbD0ibm9uZSIgaWQ9IlRlYWNoZXItdG8tTGVhcm5pbmdNYXRlcmlhbCIgc3R5bGU9InN0cm9rZTojMTgxODE4O3N0cm9rZS13aWR0aDoxOyIvPjxsaW5lIHN0eWxlPSJzdHJva2U6IzE4MTgxODtzdHJva2Utd2lkdGg6MTsiIHgxPSI0NTMuODYyNiIgeDI9IjQ0Ni42NCIgeTE9IjQ2Mi43OCIgeTI9IjQ3My40NDI2Ii8+PGxpbmUgc3R5bGU9InN0cm9rZTojMTgxODE4O3N0cm9rZS13aWR0aDoxOyIgeDE9IjQ1My44NjI2IiB4Mj0iNDQ2LjY0IiB5MT0iNDYyLjc4IiB5Mj0iNDU4Ljk5NzQiLz48bGluZSBzdHlsZT0ic3Ryb2tlOiMxODE4MTg7c3Ryb2tlLXdpZHRoOjE7IiB4MT0iNDUzLjg2MjYiIHgyPSI0NDYuNjQiIHkxPSI0NjIuNzgiIHkyPSI0NjYuMjIiLz48L2c+PCEtLWxpbmsgVGVhY2hlciB0byBBZG1pblJlcG9ydC0tPjxnIGNsYXNzPSJsaW5rIiBkYXRhLWVudGl0eS0xPSJUZWFjaGVyIiBkYXRhLWVudGl0eS0yPSJBZG1pblJlcG9ydCIgZGF0YS1zb3VyY2UtbGluZT0iODkiIGRhdGEtdWlkPSJsbmsxNyIgaWQ9ImxpbmtfVGVhY2hlcl9BZG1pblJlcG9ydCI+PHBhdGggY29kZUxpbmU9Ijg5IiBkPSJNNjk1LDM2NS43MSBDNjk1LDM5Mi4yOCA2OTUsNDE1LjE3IDY5NSw0NDAuODIiIGZpbGw9Im5vbmUiIGlkPSJUZWFjaGVyLXRvLUFkbWluUmVwb3J0IiBzdHlsZT0ic3Ryb2tlOiMxODE4MTg7c3Ryb2tlLXdpZHRoOjE7Ii8+PGxpbmUgc3R5bGU9InN0cm9rZTojMTgxODE4O3N0cm9rZS13aWR0aDoxOyIgeDE9IjY5NSIgeDI9IjcwMyIgeTE9IjQ0MC44MiIgeTI9IjQ0OC44MiIvPjxsaW5lIHN0eWxlPSJzdHJva2U6IzE4MTgxODtzdHJva2Utd2lkdGg6MTsiIHgxPSI2OTUiIHgyPSI2ODciIHkxPSI0NDAuODIiIHkyPSI0NDguODIiLz48bGluZSBzdHlsZT0ic3Ryb2tlOiMxODE4MTg7c3Ryb2tlLXdpZHRoOjE7IiB4MT0iNjk1IiB4Mj0iNjk1IiB5MT0iNDQwLjgyIiB5Mj0iNDQ4LjgyIi8+PC9nPjwhLS1saW5rIENvdXJzZSB0byBMZWFybmluZ01hdGVyaWFsLS0+PGcgY2xhc3M9ImxpbmsiIGRhdGEtZW50aXR5LTE9IkNvdXJzZSIgZGF0YS1lbnRpdHktMj0iTGVhcm5pbmdNYXRlcmlhbCIgZGF0YS1zb3VyY2UtbGluZT0iOTEiIGRhdGEtdWlkPSJsbmsxOCIgaWQ9ImxpbmtfQ291cnNlX0xlYXJuaW5nTWF0ZXJpYWwiPjxwYXRoIGNvZGVMaW5lPSI5MSIgZD0iTTE1NS43NSwzNTYuODMgQzE2MS4zNiwzNjIuNDkgMTY3LjE4LDM2OC4wMSAxNzMsMzczIEMyMDguMyw0MDMuMjkgMjQ0LjI1NzcsNDI4LjE0MTQgMjgwLjYyNzcsNDUxLjAxMTQiIGZpbGw9Im5vbmUiIGlkPSJDb3Vyc2UtdG8tTGVhcm5pbmdNYXRlcmlhbCIgc3R5bGU9InN0cm9rZTojMTgxODE4O3N0cm9rZS13aWR0aDoxOyIvPjxsaW5lIHN0eWxlPSJzdHJva2U6IzE4MTgxODtzdHJva2Utd2lkdGg6MTsiIHgxPSIyODAuNjI3NyIgeDI9IjI4Ny40IiB5MT0iNDUxLjAxMTQiIHkyPSI0NDguNDk3NyIvPjxsaW5lIHN0eWxlPSJzdHJva2U6IzE4MTgxODtzdHJva2Utd2lkdGg6MTsiIHgxPSIyODAuNjI3NyIgeDI9IjI4Ny40IiB5MT0iNDUxLjAxMTQiIHkyPSI0NjIuMDQyMyIvPjxsaW5lIHN0eWxlPSJzdHJva2U6IzE4MTgxODtzdHJva2Utd2lkdGg6MTsiIHgxPSIyODAuNjI3NyIgeDI9IjI4Ny40IiB5MT0iNDUxLjAxMTQiIHkyPSI0NTUuMjciLz48L2c+PCEtLWxpbmsgQ291cnNlIHRvIFRlc3RSZXN1bHQtLT48ZyBjbGFzcz0ibGluayIgZGF0YS1lbnRpdHktMT0iQ291cnNlIiBkYXRhLWVudGl0eS0yPSJUZXN0UmVzdWx0IiBkYXRhLXNvdXJjZS1saW5lPSI5MiIgZGF0YS11aWQ9ImxuazE5IiBpZD0ibGlua19Db3Vyc2VfVGVzdFJlc3VsdCI+PHBhdGggY29kZUxpbmU9IjkyIiBkPSJNOTQuNjcsMzY1LjcxIEM4OC44NiwzODcuMzEgODQuMzYxLDQwNC4wMzU0IDc4LjM5MSw0MjYuMTk1NCIgZmlsbD0ibm9uZSIgaWQ9IkNvdXJzZS10by1UZXN0UmVzdWx0IiBzdHlsZT0ic3Ryb2tlOiMxODE4MTg7c3Ryb2tlLXdpZHRoOjE7Ii8+PGxpbmUgc3R5bGU9InN0cm9rZTojMTgxODE4O3N0cm9rZS13aWR0aDoxOyIgeDE9Ijc4LjM5MSIgeDI9Ijg0LjAzNDYiIHkxPSI0MjYuMTk1NCIgeTI9IjQzMy45MiIvPjxsaW5lIHN0eWxlPSJzdHJva2U6IzE4MTgxODtzdHJva2Utd2lkdGg6MTsiIHgxPSI3OC4zOTEiIHgyPSI2OC41ODU0IiB5MT0iNDI2LjE5NTQiIHkyPSI0MzMuOTIiLz48bGluZSBzdHlsZT0ic3Ryb2tlOiMxODE4MTg7c3Ryb2tlLXdpZHRoOjE7IiB4MT0iNzguMzkxIiB4Mj0iNzYuMzEiIHkxPSI0MjYuMTk1NCIgeTI9IjQzMy45MiIvPjwvZz48IS0tU1JDPVtYTEpCUmppbTRCcGhBblpxYTBYZXE3alg2MFkyLWo4TUFEb1dMdTZjcmltWVY2NTk5TEEyXzdqOVlPdWFJdTV6aUpJcGQyNXRYeGdndU9XNk1FMDcxSlRqb09KWXRoRU1SSlJpdms3aGJ6dGtCbHZBampxTUx4ZEs0TWZFdEtfZUtsc2NzUlFSUnlyODdvcTFJZEVZQ1Q2dUJPZmh6aUM0MzBZLTZDcC1YZ082NHFoc0xoMmZnMV9tMmtpbzRlUGhZNy1XRVFmSzV0VnRPZ2NFWm1HSVZJMFVxOWdndlc1dzZJaTlsQXlLRjRFZ1Z4T2VlNzg0SG8wbThmZ181emRfMFJYdTE1aHVYbTVWel9TRTE3QTVoeHJqOGJlN1g0Y3d3ZTNKSEZfVURrSFg4SXp3VUF2LXNndFlIWlBTOWdXNkJtWFR4XzhYLUlpdzYzSm9UcG1qbk1xaW43S2NpbG5hNVpGUnFCZGE4UW05Z1RDRGdSRFlXWVhLTHVVa2NkUFpxWmVWemswUmpQbVV6VjNJVnB4THBwUmNISUpJd1FEejVWV0pmMVFkNEhpdmtreTB3V0NOSm1sbE9vT2trVWtPYUE3QjBVRHB1RGdqc0ZwWGRMeEJmbmxtSW9QU3N5UTRWOU8ta1NDbzZMelZVRFM3TTQyU1M2S1FWRzBRWlYtYnBEdlJoUmNmTC1CSnV2VlNKc0sxc2QxLUpYMU02ZG9EeS1MWWRnLXhNZ0ZQV3hFcURqVzRCdHFiNkEyU2JsOGlrN2NHRUt4OXZ2aGpHVkx0bnAtWXlxTi0yQjNSc3BTc2ZjZTZkeU96MF9EbVBqWXFSbl80VXNBNmd5WS1ucXlHTVFOWUxlZnktX2s1dnpUZ0hhdndLWEhQUTdOSFgxakZ5WHkwXS0tPjwvZz48L3N2Zz4=;" vertex="1" parent="1">
            <mxGeometry x="890" y="-60" width="764" height="578" as="geometry" />
          </mxCell>
        </UserObject>
        <mxCell id="H9n-Ir_IiPvq5BRFLjXa-53" value="LearningMaterial" style="shape=table;startSize=30;container=1;collapsible=1;childLayout=tableLayout;fixedRows=1;rowLines=0;fontStyle=1;align=center;resizeLast=1;html=1;" vertex="1" parent="1">
          <mxGeometry x="110" y="585" width="220" height="180" as="geometry" />
        </mxCell>
        <mxCell id="H9n-Ir_IiPvq5BRFLjXa-54" value="" style="shape=tableRow;horizontal=0;startSize=0;swimlaneHead=0;swimlaneBody=0;fillColor=none;collapsible=0;dropTarget=0;points=[[0,0.5],[1,0.5]];portConstraint=eastwest;top=0;left=0;right=0;bottom=1;" vertex="1" parent="H9n-Ir_IiPvq5BRFLjXa-53">
          <mxGeometry y="30" width="220" height="30" as="geometry" />
        </mxCell>
        <mxCell id="H9n-Ir_IiPvq5BRFLjXa-55" value="PK" style="shape=partialRectangle;connectable=0;fillColor=none;top=0;left=0;bottom=0;right=0;fontStyle=1;overflow=hidden;whiteSpace=wrap;html=1;" vertex="1" parent="H9n-Ir_IiPvq5BRFLjXa-54">
          <mxGeometry width="30" height="30" as="geometry">
            <mxRectangle width="30" height="30" as="alternateBounds" />
          </mxGeometry>
        </mxCell>
        <mxCell id="H9n-Ir_IiPvq5BRFLjXa-56" value="&lt;code data-end=&quot;1073&quot; data-start=&quot;1060&quot;&gt;material_id&lt;/code&gt;" style="shape=partialRectangle;connectable=0;fillColor=none;top=0;left=0;bottom=0;right=0;align=left;spacingLeft=6;fontStyle=5;overflow=hidden;whiteSpace=wrap;html=1;" vertex="1" parent="H9n-Ir_IiPvq5BRFLjXa-54">
          <mxGeometry x="30" width="190" height="30" as="geometry">
            <mxRectangle width="190" height="30" as="alternateBounds" />
          </mxGeometry>
        </mxCell>
        <mxCell id="H9n-Ir_IiPvq5BRFLjXa-94" value="" style="shape=tableRow;horizontal=0;startSize=0;swimlaneHead=0;swimlaneBody=0;fillColor=none;collapsible=0;dropTarget=0;points=[[0,0.5],[1,0.5]];portConstraint=eastwest;top=0;left=0;right=0;bottom=1;" vertex="1" parent="H9n-Ir_IiPvq5BRFLjXa-53">
          <mxGeometry y="60" width="220" height="30" as="geometry" />
        </mxCell>
        <mxCell id="H9n-Ir_IiPvq5BRFLjXa-95" value="FK" style="shape=partialRectangle;connectable=0;fillColor=none;top=0;left=0;bottom=0;right=0;fontStyle=1;overflow=hidden;whiteSpace=wrap;html=1;" vertex="1" parent="H9n-Ir_IiPvq5BRFLjXa-94">
          <mxGeometry width="30" height="30" as="geometry">
            <mxRectangle width="30" height="30" as="alternateBounds" />
          </mxGeometry>
        </mxCell>
        <mxCell id="H9n-Ir_IiPvq5BRFLjXa-96" value="&lt;code data-end=&quot;1092&quot; data-start=&quot;1081&quot;&gt;course_id&lt;/code&gt;" style="shape=partialRectangle;connectable=0;fillColor=none;top=0;left=0;bottom=0;right=0;align=left;spacingLeft=6;fontStyle=5;overflow=hidden;whiteSpace=wrap;html=1;" vertex="1" parent="H9n-Ir_IiPvq5BRFLjXa-94">
          <mxGeometry x="30" width="190" height="30" as="geometry">
            <mxRectangle width="190" height="30" as="alternateBounds" />
          </mxGeometry>
        </mxCell>
        <mxCell id="H9n-Ir_IiPvq5BRFLjXa-97" value="" style="shape=tableRow;horizontal=0;startSize=0;swimlaneHead=0;swimlaneBody=0;fillColor=none;collapsible=0;dropTarget=0;points=[[0,0.5],[1,0.5]];portConstraint=eastwest;top=0;left=0;right=0;bottom=1;" vertex="1" parent="H9n-Ir_IiPvq5BRFLjXa-53">
          <mxGeometry y="90" width="220" height="30" as="geometry" />
        </mxCell>
        <mxCell id="H9n-Ir_IiPvq5BRFLjXa-98" value="FK" style="shape=partialRectangle;connectable=0;fillColor=none;top=0;left=0;bottom=0;right=0;fontStyle=1;overflow=hidden;whiteSpace=wrap;html=1;" vertex="1" parent="H9n-Ir_IiPvq5BRFLjXa-97">
          <mxGeometry width="30" height="30" as="geometry">
            <mxRectangle width="30" height="30" as="alternateBounds" />
          </mxGeometry>
        </mxCell>
        <mxCell id="H9n-Ir_IiPvq5BRFLjXa-99" value="&lt;code data-end=&quot;1175&quot; data-start=&quot;1152&quot;&gt;created_by_teacher_id&lt;/code&gt;" style="shape=partialRectangle;connectable=0;fillColor=none;top=0;left=0;bottom=0;right=0;align=left;spacingLeft=6;fontStyle=5;overflow=hidden;whiteSpace=wrap;html=1;" vertex="1" parent="H9n-Ir_IiPvq5BRFLjXa-97">
          <mxGeometry x="30" width="190" height="30" as="geometry">
            <mxRectangle width="190" height="30" as="alternateBounds" />
          </mxGeometry>
        </mxCell>
        <mxCell id="H9n-Ir_IiPvq5BRFLjXa-57" value="" style="shape=tableRow;horizontal=0;startSize=0;swimlaneHead=0;swimlaneBody=0;fillColor=none;collapsible=0;dropTarget=0;points=[[0,0.5],[1,0.5]];portConstraint=eastwest;top=0;left=0;right=0;bottom=0;" vertex="1" parent="H9n-Ir_IiPvq5BRFLjXa-53">
          <mxGeometry y="120" width="220" height="30" as="geometry" />
        </mxCell>
        <mxCell id="H9n-Ir_IiPvq5BRFLjXa-58" value="" style="shape=partialRectangle;connectable=0;fillColor=none;top=0;left=0;bottom=0;right=0;editable=1;overflow=hidden;whiteSpace=wrap;html=1;" vertex="1" parent="H9n-Ir_IiPvq5BRFLjXa-57">
          <mxGeometry width="30" height="30" as="geometry">
            <mxRectangle width="30" height="30" as="alternateBounds" />
          </mxGeometry>
        </mxCell>
        <mxCell id="H9n-Ir_IiPvq5BRFLjXa-59" value="&lt;code data-end=&quot;1106&quot; data-start=&quot;1100&quot;&gt;type&lt;/code&gt;" style="shape=partialRectangle;connectable=0;fillColor=none;top=0;left=0;bottom=0;right=0;align=left;spacingLeft=6;overflow=hidden;whiteSpace=wrap;html=1;" vertex="1" parent="H9n-Ir_IiPvq5BRFLjXa-57">
          <mxGeometry x="30" width="190" height="30" as="geometry">
            <mxRectangle width="190" height="30" as="alternateBounds" />
          </mxGeometry>
        </mxCell>
        <mxCell id="H9n-Ir_IiPvq5BRFLjXa-60" value="" style="shape=tableRow;horizontal=0;startSize=0;swimlaneHead=0;swimlaneBody=0;fillColor=none;collapsible=0;dropTarget=0;points=[[0,0.5],[1,0.5]];portConstraint=eastwest;top=0;left=0;right=0;bottom=0;" vertex="1" parent="H9n-Ir_IiPvq5BRFLjXa-53">
          <mxGeometry y="150" width="220" height="30" as="geometry" />
        </mxCell>
        <mxCell id="H9n-Ir_IiPvq5BRFLjXa-61" value="" style="shape=partialRectangle;connectable=0;fillColor=none;top=0;left=0;bottom=0;right=0;editable=1;overflow=hidden;whiteSpace=wrap;html=1;" vertex="1" parent="H9n-Ir_IiPvq5BRFLjXa-60">
          <mxGeometry width="30" height="30" as="geometry">
            <mxRectangle width="30" height="30" as="alternateBounds" />
          </mxGeometry>
        </mxCell>
        <mxCell id="H9n-Ir_IiPvq5BRFLjXa-62" value="content_url" style="shape=partialRectangle;connectable=0;fillColor=none;top=0;left=0;bottom=0;right=0;align=left;spacingLeft=6;overflow=hidden;whiteSpace=wrap;html=1;" vertex="1" parent="H9n-Ir_IiPvq5BRFLjXa-60">
          <mxGeometry x="30" width="190" height="30" as="geometry">
            <mxRectangle width="190" height="30" as="alternateBounds" />
          </mxGeometry>
        </mxCell>
        <mxCell id="H9n-Ir_IiPvq5BRFLjXa-75" value="Course" style="shape=table;startSize=30;container=1;collapsible=1;childLayout=tableLayout;fixedRows=1;rowLines=0;fontStyle=1;align=center;resizeLast=1;html=1;" vertex="1" parent="1">
          <mxGeometry x="-400" y="310" width="180" height="180" as="geometry" />
        </mxCell>
        <mxCell id="H9n-Ir_IiPvq5BRFLjXa-76" value="" style="shape=tableRow;horizontal=0;startSize=0;swimlaneHead=0;swimlaneBody=0;fillColor=none;collapsible=0;dropTarget=0;points=[[0,0.5],[1,0.5]];portConstraint=eastwest;top=0;left=0;right=0;bottom=1;" vertex="1" parent="H9n-Ir_IiPvq5BRFLjXa-75">
          <mxGeometry y="30" width="180" height="30" as="geometry" />
        </mxCell>
        <mxCell id="H9n-Ir_IiPvq5BRFLjXa-77" value="PK" style="shape=partialRectangle;connectable=0;fillColor=none;top=0;left=0;bottom=0;right=0;fontStyle=1;overflow=hidden;whiteSpace=wrap;html=1;" vertex="1" parent="H9n-Ir_IiPvq5BRFLjXa-76">
          <mxGeometry width="30" height="30" as="geometry">
            <mxRectangle width="30" height="30" as="alternateBounds" />
          </mxGeometry>
        </mxCell>
        <mxCell id="H9n-Ir_IiPvq5BRFLjXa-78" value="&lt;code data-end=&quot;840&quot; data-start=&quot;829&quot;&gt;course_id&lt;/code&gt;" style="shape=partialRectangle;connectable=0;fillColor=none;top=0;left=0;bottom=0;right=0;align=left;spacingLeft=6;fontStyle=5;overflow=hidden;whiteSpace=wrap;html=1;" vertex="1" parent="H9n-Ir_IiPvq5BRFLjXa-76">
          <mxGeometry x="30" width="150" height="30" as="geometry">
            <mxRectangle width="150" height="30" as="alternateBounds" />
          </mxGeometry>
        </mxCell>
        <mxCell id="H9n-Ir_IiPvq5BRFLjXa-79" value="" style="shape=tableRow;horizontal=0;startSize=0;swimlaneHead=0;swimlaneBody=0;fillColor=none;collapsible=0;dropTarget=0;points=[[0,0.5],[1,0.5]];portConstraint=eastwest;top=0;left=0;right=0;bottom=0;" vertex="1" parent="H9n-Ir_IiPvq5BRFLjXa-75">
          <mxGeometry y="60" width="180" height="30" as="geometry" />
        </mxCell>
        <mxCell id="H9n-Ir_IiPvq5BRFLjXa-80" value="" style="shape=partialRectangle;connectable=0;fillColor=none;top=0;left=0;bottom=0;right=0;editable=1;overflow=hidden;whiteSpace=wrap;html=1;" vertex="1" parent="H9n-Ir_IiPvq5BRFLjXa-79">
          <mxGeometry width="30" height="30" as="geometry">
            <mxRectangle width="30" height="30" as="alternateBounds" />
          </mxGeometry>
        </mxCell>
        <mxCell id="H9n-Ir_IiPvq5BRFLjXa-81" value="name" style="shape=partialRectangle;connectable=0;fillColor=none;top=0;left=0;bottom=0;right=0;align=left;spacingLeft=6;overflow=hidden;whiteSpace=wrap;html=1;" vertex="1" parent="H9n-Ir_IiPvq5BRFLjXa-79">
          <mxGeometry x="30" width="150" height="30" as="geometry">
            <mxRectangle width="150" height="30" as="alternateBounds" />
          </mxGeometry>
        </mxCell>
        <mxCell id="H9n-Ir_IiPvq5BRFLjXa-82" value="" style="shape=tableRow;horizontal=0;startSize=0;swimlaneHead=0;swimlaneBody=0;fillColor=none;collapsible=0;dropTarget=0;points=[[0,0.5],[1,0.5]];portConstraint=eastwest;top=0;left=0;right=0;bottom=0;" vertex="1" parent="H9n-Ir_IiPvq5BRFLjXa-75">
          <mxGeometry y="90" width="180" height="30" as="geometry" />
        </mxCell>
        <mxCell id="H9n-Ir_IiPvq5BRFLjXa-83" value="" style="shape=partialRectangle;connectable=0;fillColor=none;top=0;left=0;bottom=0;right=0;editable=1;overflow=hidden;whiteSpace=wrap;html=1;" vertex="1" parent="H9n-Ir_IiPvq5BRFLjXa-82">
          <mxGeometry width="30" height="30" as="geometry">
            <mxRectangle width="30" height="30" as="alternateBounds" />
          </mxGeometry>
        </mxCell>
        <mxCell id="H9n-Ir_IiPvq5BRFLjXa-84" value="&lt;code data-end=&quot;864&quot; data-start=&quot;857&quot;&gt;level&lt;/code&gt;" style="shape=partialRectangle;connectable=0;fillColor=none;top=0;left=0;bottom=0;right=0;align=left;spacingLeft=6;overflow=hidden;whiteSpace=wrap;html=1;" vertex="1" parent="H9n-Ir_IiPvq5BRFLjXa-82">
          <mxGeometry x="30" width="150" height="30" as="geometry">
            <mxRectangle width="150" height="30" as="alternateBounds" />
          </mxGeometry>
        </mxCell>
        <mxCell id="H9n-Ir_IiPvq5BRFLjXa-85" value="" style="shape=tableRow;horizontal=0;startSize=0;swimlaneHead=0;swimlaneBody=0;fillColor=none;collapsible=0;dropTarget=0;points=[[0,0.5],[1,0.5]];portConstraint=eastwest;top=0;left=0;right=0;bottom=0;" vertex="1" parent="H9n-Ir_IiPvq5BRFLjXa-75">
          <mxGeometry y="120" width="180" height="30" as="geometry" />
        </mxCell>
        <mxCell id="H9n-Ir_IiPvq5BRFLjXa-86" value="" style="shape=partialRectangle;connectable=0;fillColor=none;top=0;left=0;bottom=0;right=0;editable=1;overflow=hidden;whiteSpace=wrap;html=1;" vertex="1" parent="H9n-Ir_IiPvq5BRFLjXa-85">
          <mxGeometry width="30" height="30" as="geometry">
            <mxRectangle width="30" height="30" as="alternateBounds" />
          </mxGeometry>
        </mxCell>
        <mxCell id="H9n-Ir_IiPvq5BRFLjXa-87" value="language" style="shape=partialRectangle;connectable=0;fillColor=none;top=0;left=0;bottom=0;right=0;align=left;spacingLeft=6;overflow=hidden;whiteSpace=wrap;html=1;" vertex="1" parent="H9n-Ir_IiPvq5BRFLjXa-85">
          <mxGeometry x="30" width="150" height="30" as="geometry">
            <mxRectangle width="150" height="30" as="alternateBounds" />
          </mxGeometry>
        </mxCell>
        <mxCell id="H9n-Ir_IiPvq5BRFLjXa-88" value="" style="shape=tableRow;horizontal=0;startSize=0;swimlaneHead=0;swimlaneBody=0;fillColor=none;collapsible=0;dropTarget=0;points=[[0,0.5],[1,0.5]];portConstraint=eastwest;top=0;left=0;right=0;bottom=0;" vertex="1" parent="H9n-Ir_IiPvq5BRFLjXa-75">
          <mxGeometry y="150" width="180" height="30" as="geometry" />
        </mxCell>
        <mxCell id="H9n-Ir_IiPvq5BRFLjXa-89" value="" style="shape=partialRectangle;connectable=0;fillColor=none;top=0;left=0;bottom=0;right=0;editable=1;overflow=hidden;whiteSpace=wrap;html=1;" vertex="1" parent="H9n-Ir_IiPvq5BRFLjXa-88">
          <mxGeometry width="30" height="30" as="geometry">
            <mxRectangle width="30" height="30" as="alternateBounds" />
          </mxGeometry>
        </mxCell>
        <mxCell id="H9n-Ir_IiPvq5BRFLjXa-90" value="description" style="shape=partialRectangle;connectable=0;fillColor=none;top=0;left=0;bottom=0;right=0;align=left;spacingLeft=6;overflow=hidden;whiteSpace=wrap;html=1;" vertex="1" parent="H9n-Ir_IiPvq5BRFLjXa-88">
          <mxGeometry x="30" width="150" height="30" as="geometry">
            <mxRectangle width="150" height="30" as="alternateBounds" />
          </mxGeometry>
        </mxCell>
        <mxCell id="H9n-Ir_IiPvq5BRFLjXa-100" value="Teacher" style="shape=table;startSize=30;container=1;collapsible=1;childLayout=tableLayout;fixedRows=1;rowLines=0;fontStyle=1;align=center;resizeLast=1;html=1;" vertex="1" parent="1">
          <mxGeometry x="430" y="330" width="180" height="180" as="geometry" />
        </mxCell>
        <mxCell id="H9n-Ir_IiPvq5BRFLjXa-101" value="" style="shape=tableRow;horizontal=0;startSize=0;swimlaneHead=0;swimlaneBody=0;fillColor=none;collapsible=0;dropTarget=0;points=[[0,0.5],[1,0.5]];portConstraint=eastwest;top=0;left=0;right=0;bottom=1;" vertex="1" parent="H9n-Ir_IiPvq5BRFLjXa-100">
          <mxGeometry y="30" width="180" height="30" as="geometry" />
        </mxCell>
        <mxCell id="H9n-Ir_IiPvq5BRFLjXa-102" value="PK" style="shape=partialRectangle;connectable=0;fillColor=none;top=0;left=0;bottom=0;right=0;fontStyle=1;overflow=hidden;whiteSpace=wrap;html=1;" vertex="1" parent="H9n-Ir_IiPvq5BRFLjXa-101">
          <mxGeometry width="30" height="30" as="geometry">
            <mxRectangle width="30" height="30" as="alternateBounds" />
          </mxGeometry>
        </mxCell>
        <mxCell id="H9n-Ir_IiPvq5BRFLjXa-103" value="&lt;code data-end=&quot;626&quot; data-start=&quot;614&quot;&gt;teacher_id&lt;/code&gt;" style="shape=partialRectangle;connectable=0;fillColor=none;top=0;left=0;bottom=0;right=0;align=left;spacingLeft=6;fontStyle=5;overflow=hidden;whiteSpace=wrap;html=1;" vertex="1" parent="H9n-Ir_IiPvq5BRFLjXa-101">
          <mxGeometry x="30" width="150" height="30" as="geometry">
            <mxRectangle width="150" height="30" as="alternateBounds" />
          </mxGeometry>
        </mxCell>
        <mxCell id="H9n-Ir_IiPvq5BRFLjXa-104" value="" style="shape=tableRow;horizontal=0;startSize=0;swimlaneHead=0;swimlaneBody=0;fillColor=none;collapsible=0;dropTarget=0;points=[[0,0.5],[1,0.5]];portConstraint=eastwest;top=0;left=0;right=0;bottom=0;" vertex="1" parent="H9n-Ir_IiPvq5BRFLjXa-100">
          <mxGeometry y="60" width="180" height="30" as="geometry" />
        </mxCell>
        <mxCell id="H9n-Ir_IiPvq5BRFLjXa-105" value="" style="shape=partialRectangle;connectable=0;fillColor=none;top=0;left=0;bottom=0;right=0;editable=1;overflow=hidden;whiteSpace=wrap;html=1;" vertex="1" parent="H9n-Ir_IiPvq5BRFLjXa-104">
          <mxGeometry width="30" height="30" as="geometry">
            <mxRectangle width="30" height="30" as="alternateBounds" />
          </mxGeometry>
        </mxCell>
        <mxCell id="H9n-Ir_IiPvq5BRFLjXa-106" value="name" style="shape=partialRectangle;connectable=0;fillColor=none;top=0;left=0;bottom=0;right=0;align=left;spacingLeft=6;overflow=hidden;whiteSpace=wrap;html=1;" vertex="1" parent="H9n-Ir_IiPvq5BRFLjXa-104">
          <mxGeometry x="30" width="150" height="30" as="geometry">
            <mxRectangle width="150" height="30" as="alternateBounds" />
          </mxGeometry>
        </mxCell>
        <mxCell id="H9n-Ir_IiPvq5BRFLjXa-107" value="" style="shape=tableRow;horizontal=0;startSize=0;swimlaneHead=0;swimlaneBody=0;fillColor=none;collapsible=0;dropTarget=0;points=[[0,0.5],[1,0.5]];portConstraint=eastwest;top=0;left=0;right=0;bottom=0;" vertex="1" parent="H9n-Ir_IiPvq5BRFLjXa-100">
          <mxGeometry y="90" width="180" height="30" as="geometry" />
        </mxCell>
        <mxCell id="H9n-Ir_IiPvq5BRFLjXa-108" value="" style="shape=partialRectangle;connectable=0;fillColor=none;top=0;left=0;bottom=0;right=0;editable=1;overflow=hidden;whiteSpace=wrap;html=1;" vertex="1" parent="H9n-Ir_IiPvq5BRFLjXa-107">
          <mxGeometry width="30" height="30" as="geometry">
            <mxRectangle width="30" height="30" as="alternateBounds" />
          </mxGeometry>
        </mxCell>
        <mxCell id="H9n-Ir_IiPvq5BRFLjXa-109" value="&lt;code data-end=&quot;864&quot; data-start=&quot;857&quot;&gt;email&lt;/code&gt;" style="shape=partialRectangle;connectable=0;fillColor=none;top=0;left=0;bottom=0;right=0;align=left;spacingLeft=6;overflow=hidden;whiteSpace=wrap;html=1;" vertex="1" parent="H9n-Ir_IiPvq5BRFLjXa-107">
          <mxGeometry x="30" width="150" height="30" as="geometry">
            <mxRectangle width="150" height="30" as="alternateBounds" />
          </mxGeometry>
        </mxCell>
        <mxCell id="H9n-Ir_IiPvq5BRFLjXa-110" value="" style="shape=tableRow;horizontal=0;startSize=0;swimlaneHead=0;swimlaneBody=0;fillColor=none;collapsible=0;dropTarget=0;points=[[0,0.5],[1,0.5]];portConstraint=eastwest;top=0;left=0;right=0;bottom=0;" vertex="1" parent="H9n-Ir_IiPvq5BRFLjXa-100">
          <mxGeometry y="120" width="180" height="30" as="geometry" />
        </mxCell>
        <mxCell id="H9n-Ir_IiPvq5BRFLjXa-111" value="" style="shape=partialRectangle;connectable=0;fillColor=none;top=0;left=0;bottom=0;right=0;editable=1;overflow=hidden;whiteSpace=wrap;html=1;" vertex="1" parent="H9n-Ir_IiPvq5BRFLjXa-110">
          <mxGeometry width="30" height="30" as="geometry">
            <mxRectangle width="30" height="30" as="alternateBounds" />
          </mxGeometry>
        </mxCell>
        <mxCell id="H9n-Ir_IiPvq5BRFLjXa-112" value="specialization" style="shape=partialRectangle;connectable=0;fillColor=none;top=0;left=0;bottom=0;right=0;align=left;spacingLeft=6;overflow=hidden;whiteSpace=wrap;html=1;" vertex="1" parent="H9n-Ir_IiPvq5BRFLjXa-110">
          <mxGeometry x="30" width="150" height="30" as="geometry">
            <mxRectangle width="150" height="30" as="alternateBounds" />
          </mxGeometry>
        </mxCell>
        <mxCell id="H9n-Ir_IiPvq5BRFLjXa-113" value="" style="shape=tableRow;horizontal=0;startSize=0;swimlaneHead=0;swimlaneBody=0;fillColor=none;collapsible=0;dropTarget=0;points=[[0,0.5],[1,0.5]];portConstraint=eastwest;top=0;left=0;right=0;bottom=0;" vertex="1" parent="H9n-Ir_IiPvq5BRFLjXa-100">
          <mxGeometry y="150" width="180" height="30" as="geometry" />
        </mxCell>
        <mxCell id="H9n-Ir_IiPvq5BRFLjXa-114" value="" style="shape=partialRectangle;connectable=0;fillColor=none;top=0;left=0;bottom=0;right=0;editable=1;overflow=hidden;whiteSpace=wrap;html=1;" vertex="1" parent="H9n-Ir_IiPvq5BRFLjXa-113">
          <mxGeometry width="30" height="30" as="geometry">
            <mxRectangle width="30" height="30" as="alternateBounds" />
          </mxGeometry>
        </mxCell>
        <mxCell id="H9n-Ir_IiPvq5BRFLjXa-115" value="experience_years" style="shape=partialRectangle;connectable=0;fillColor=none;top=0;left=0;bottom=0;right=0;align=left;spacingLeft=6;overflow=hidden;whiteSpace=wrap;html=1;" vertex="1" parent="H9n-Ir_IiPvq5BRFLjXa-113">
          <mxGeometry x="30" width="150" height="30" as="geometry">
            <mxRectangle width="150" height="30" as="alternateBounds" />
          </mxGeometry>
        </mxCell>
        <mxCell id="H9n-Ir_IiPvq5BRFLjXa-116" value="TestResult" style="shape=table;startSize=30;container=1;collapsible=1;childLayout=tableLayout;fixedRows=1;rowLines=0;fontStyle=1;align=center;resizeLast=1;html=1;" vertex="1" parent="1">
          <mxGeometry x="-700" y="295" width="220" height="210" as="geometry" />
        </mxCell>
        <mxCell id="H9n-Ir_IiPvq5BRFLjXa-117" value="" style="shape=tableRow;horizontal=0;startSize=0;swimlaneHead=0;swimlaneBody=0;fillColor=none;collapsible=0;dropTarget=0;points=[[0,0.5],[1,0.5]];portConstraint=eastwest;top=0;left=0;right=0;bottom=1;" vertex="1" parent="H9n-Ir_IiPvq5BRFLjXa-116">
          <mxGeometry y="30" width="220" height="30" as="geometry" />
        </mxCell>
        <mxCell id="H9n-Ir_IiPvq5BRFLjXa-118" value="PK" style="shape=partialRectangle;connectable=0;fillColor=none;top=0;left=0;bottom=0;right=0;fontStyle=1;overflow=hidden;whiteSpace=wrap;html=1;" vertex="1" parent="H9n-Ir_IiPvq5BRFLjXa-117">
          <mxGeometry width="30" height="30" as="geometry">
            <mxRectangle width="30" height="30" as="alternateBounds" />
          </mxGeometry>
        </mxCell>
        <mxCell id="H9n-Ir_IiPvq5BRFLjXa-119" value="&lt;code data-end=&quot;1223&quot; data-start=&quot;1212&quot;&gt;result_id&lt;/code&gt;" style="shape=partialRectangle;connectable=0;fillColor=none;top=0;left=0;bottom=0;right=0;align=left;spacingLeft=6;fontStyle=5;overflow=hidden;whiteSpace=wrap;html=1;" vertex="1" parent="H9n-Ir_IiPvq5BRFLjXa-117">
          <mxGeometry x="30" width="190" height="30" as="geometry">
            <mxRectangle width="190" height="30" as="alternateBounds" />
          </mxGeometry>
        </mxCell>
        <mxCell id="H9n-Ir_IiPvq5BRFLjXa-120" value="" style="shape=tableRow;horizontal=0;startSize=0;swimlaneHead=0;swimlaneBody=0;fillColor=none;collapsible=0;dropTarget=0;points=[[0,0.5],[1,0.5]];portConstraint=eastwest;top=0;left=0;right=0;bottom=1;" vertex="1" parent="H9n-Ir_IiPvq5BRFLjXa-116">
          <mxGeometry y="60" width="220" height="30" as="geometry" />
        </mxCell>
        <mxCell id="H9n-Ir_IiPvq5BRFLjXa-121" value="FK" style="shape=partialRectangle;connectable=0;fillColor=none;top=0;left=0;bottom=0;right=0;fontStyle=1;overflow=hidden;whiteSpace=wrap;html=1;" vertex="1" parent="H9n-Ir_IiPvq5BRFLjXa-120">
          <mxGeometry width="30" height="30" as="geometry">
            <mxRectangle width="30" height="30" as="alternateBounds" />
          </mxGeometry>
        </mxCell>
        <mxCell id="H9n-Ir_IiPvq5BRFLjXa-122" value="&lt;code data-end=&quot;1243&quot; data-start=&quot;1231&quot;&gt;student_id&lt;/code&gt;" style="shape=partialRectangle;connectable=0;fillColor=none;top=0;left=0;bottom=0;right=0;align=left;spacingLeft=6;fontStyle=5;overflow=hidden;whiteSpace=wrap;html=1;" vertex="1" parent="H9n-Ir_IiPvq5BRFLjXa-120">
          <mxGeometry x="30" width="190" height="30" as="geometry">
            <mxRectangle width="190" height="30" as="alternateBounds" />
          </mxGeometry>
        </mxCell>
        <mxCell id="H9n-Ir_IiPvq5BRFLjXa-123" value="" style="shape=tableRow;horizontal=0;startSize=0;swimlaneHead=0;swimlaneBody=0;fillColor=none;collapsible=0;dropTarget=0;points=[[0,0.5],[1,0.5]];portConstraint=eastwest;top=0;left=0;right=0;bottom=1;" vertex="1" parent="H9n-Ir_IiPvq5BRFLjXa-116">
          <mxGeometry y="90" width="220" height="30" as="geometry" />
        </mxCell>
        <mxCell id="H9n-Ir_IiPvq5BRFLjXa-124" value="FK" style="shape=partialRectangle;connectable=0;fillColor=none;top=0;left=0;bottom=0;right=0;fontStyle=1;overflow=hidden;whiteSpace=wrap;html=1;" vertex="1" parent="H9n-Ir_IiPvq5BRFLjXa-123">
          <mxGeometry width="30" height="30" as="geometry">
            <mxRectangle width="30" height="30" as="alternateBounds" />
          </mxGeometry>
        </mxCell>
        <mxCell id="H9n-Ir_IiPvq5BRFLjXa-125" value="&lt;code data-end=&quot;1262&quot; data-start=&quot;1251&quot;&gt;course_id&lt;/code&gt;" style="shape=partialRectangle;connectable=0;fillColor=none;top=0;left=0;bottom=0;right=0;align=left;spacingLeft=6;fontStyle=5;overflow=hidden;whiteSpace=wrap;html=1;" vertex="1" parent="H9n-Ir_IiPvq5BRFLjXa-123">
          <mxGeometry x="30" width="190" height="30" as="geometry">
            <mxRectangle width="190" height="30" as="alternateBounds" />
          </mxGeometry>
        </mxCell>
        <mxCell id="H9n-Ir_IiPvq5BRFLjXa-126" value="" style="shape=tableRow;horizontal=0;startSize=0;swimlaneHead=0;swimlaneBody=0;fillColor=none;collapsible=0;dropTarget=0;points=[[0,0.5],[1,0.5]];portConstraint=eastwest;top=0;left=0;right=0;bottom=0;" vertex="1" parent="H9n-Ir_IiPvq5BRFLjXa-116">
          <mxGeometry y="120" width="220" height="30" as="geometry" />
        </mxCell>
        <mxCell id="H9n-Ir_IiPvq5BRFLjXa-127" value="" style="shape=partialRectangle;connectable=0;fillColor=none;top=0;left=0;bottom=0;right=0;editable=1;overflow=hidden;whiteSpace=wrap;html=1;" vertex="1" parent="H9n-Ir_IiPvq5BRFLjXa-126">
          <mxGeometry width="30" height="30" as="geometry">
            <mxRectangle width="30" height="30" as="alternateBounds" />
          </mxGeometry>
        </mxCell>
        <mxCell id="H9n-Ir_IiPvq5BRFLjXa-128" value="&lt;code data-end=&quot;1106&quot; data-start=&quot;1100&quot;&gt;score&lt;/code&gt;" style="shape=partialRectangle;connectable=0;fillColor=none;top=0;left=0;bottom=0;right=0;align=left;spacingLeft=6;overflow=hidden;whiteSpace=wrap;html=1;" vertex="1" parent="H9n-Ir_IiPvq5BRFLjXa-126">
          <mxGeometry x="30" width="190" height="30" as="geometry">
            <mxRectangle width="190" height="30" as="alternateBounds" />
          </mxGeometry>
        </mxCell>
        <mxCell id="H9n-Ir_IiPvq5BRFLjXa-129" value="" style="shape=tableRow;horizontal=0;startSize=0;swimlaneHead=0;swimlaneBody=0;fillColor=none;collapsible=0;dropTarget=0;points=[[0,0.5],[1,0.5]];portConstraint=eastwest;top=0;left=0;right=0;bottom=0;" vertex="1" parent="H9n-Ir_IiPvq5BRFLjXa-116">
          <mxGeometry y="150" width="220" height="30" as="geometry" />
        </mxCell>
        <mxCell id="H9n-Ir_IiPvq5BRFLjXa-130" value="" style="shape=partialRectangle;connectable=0;fillColor=none;top=0;left=0;bottom=0;right=0;editable=1;overflow=hidden;whiteSpace=wrap;html=1;" vertex="1" parent="H9n-Ir_IiPvq5BRFLjXa-129">
          <mxGeometry width="30" height="30" as="geometry">
            <mxRectangle width="30" height="30" as="alternateBounds" />
          </mxGeometry>
        </mxCell>
        <mxCell id="H9n-Ir_IiPvq5BRFLjXa-131" value="date_taken" style="shape=partialRectangle;connectable=0;fillColor=none;top=0;left=0;bottom=0;right=0;align=left;spacingLeft=6;overflow=hidden;whiteSpace=wrap;html=1;" vertex="1" parent="H9n-Ir_IiPvq5BRFLjXa-129">
          <mxGeometry x="30" width="190" height="30" as="geometry">
            <mxRectangle width="190" height="30" as="alternateBounds" />
          </mxGeometry>
        </mxCell>
        <mxCell id="H9n-Ir_IiPvq5BRFLjXa-132" value="" style="shape=tableRow;horizontal=0;startSize=0;swimlaneHead=0;swimlaneBody=0;fillColor=none;collapsible=0;dropTarget=0;points=[[0,0.5],[1,0.5]];portConstraint=eastwest;top=0;left=0;right=0;bottom=0;" vertex="1" parent="H9n-Ir_IiPvq5BRFLjXa-116">
          <mxGeometry y="180" width="220" height="30" as="geometry" />
        </mxCell>
        <mxCell id="H9n-Ir_IiPvq5BRFLjXa-133" value="" style="shape=partialRectangle;connectable=0;fillColor=none;top=0;left=0;bottom=0;right=0;editable=1;overflow=hidden;whiteSpace=wrap;html=1;" vertex="1" parent="H9n-Ir_IiPvq5BRFLjXa-132">
          <mxGeometry width="30" height="30" as="geometry">
            <mxRectangle width="30" height="30" as="alternateBounds" />
          </mxGeometry>
        </mxCell>
        <mxCell id="H9n-Ir_IiPvq5BRFLjXa-134" value="rating" style="shape=partialRectangle;connectable=0;fillColor=none;top=0;left=0;bottom=0;right=0;align=left;spacingLeft=6;overflow=hidden;whiteSpace=wrap;html=1;" vertex="1" parent="H9n-Ir_IiPvq5BRFLjXa-132">
          <mxGeometry x="30" width="190" height="30" as="geometry">
            <mxRectangle width="190" height="30" as="alternateBounds" />
          </mxGeometry>
        </mxCell>
        <mxCell id="H9n-Ir_IiPvq5BRFLjXa-135" value="Feedback" style="shape=table;startSize=30;container=1;collapsible=1;childLayout=tableLayout;fixedRows=1;rowLines=0;fontStyle=1;align=center;resizeLast=1;html=1;" vertex="1" parent="1">
          <mxGeometry x="-150" y="310" width="220" height="180" as="geometry" />
        </mxCell>
        <mxCell id="H9n-Ir_IiPvq5BRFLjXa-136" value="" style="shape=tableRow;horizontal=0;startSize=0;swimlaneHead=0;swimlaneBody=0;fillColor=none;collapsible=0;dropTarget=0;points=[[0,0.5],[1,0.5]];portConstraint=eastwest;top=0;left=0;right=0;bottom=1;" vertex="1" parent="H9n-Ir_IiPvq5BRFLjXa-135">
          <mxGeometry y="30" width="220" height="30" as="geometry" />
        </mxCell>
        <mxCell id="H9n-Ir_IiPvq5BRFLjXa-137" value="PK" style="shape=partialRectangle;connectable=0;fillColor=none;top=0;left=0;bottom=0;right=0;fontStyle=1;overflow=hidden;whiteSpace=wrap;html=1;" vertex="1" parent="H9n-Ir_IiPvq5BRFLjXa-136">
          <mxGeometry width="30" height="30" as="geometry">
            <mxRectangle width="30" height="30" as="alternateBounds" />
          </mxGeometry>
        </mxCell>
        <mxCell id="H9n-Ir_IiPvq5BRFLjXa-138" value="&lt;code data-end=&quot;1346&quot; data-start=&quot;1333&quot;&gt;feedback_id&lt;/code&gt;" style="shape=partialRectangle;connectable=0;fillColor=none;top=0;left=0;bottom=0;right=0;align=left;spacingLeft=6;fontStyle=5;overflow=hidden;whiteSpace=wrap;html=1;" vertex="1" parent="H9n-Ir_IiPvq5BRFLjXa-136">
          <mxGeometry x="30" width="190" height="30" as="geometry">
            <mxRectangle width="190" height="30" as="alternateBounds" />
          </mxGeometry>
        </mxCell>
        <mxCell id="H9n-Ir_IiPvq5BRFLjXa-139" value="" style="shape=tableRow;horizontal=0;startSize=0;swimlaneHead=0;swimlaneBody=0;fillColor=none;collapsible=0;dropTarget=0;points=[[0,0.5],[1,0.5]];portConstraint=eastwest;top=0;left=0;right=0;bottom=1;" vertex="1" parent="H9n-Ir_IiPvq5BRFLjXa-135">
          <mxGeometry y="60" width="220" height="30" as="geometry" />
        </mxCell>
        <mxCell id="H9n-Ir_IiPvq5BRFLjXa-140" value="FK" style="shape=partialRectangle;connectable=0;fillColor=none;top=0;left=0;bottom=0;right=0;fontStyle=1;overflow=hidden;whiteSpace=wrap;html=1;" vertex="1" parent="H9n-Ir_IiPvq5BRFLjXa-139">
          <mxGeometry width="30" height="30" as="geometry">
            <mxRectangle width="30" height="30" as="alternateBounds" />
          </mxGeometry>
        </mxCell>
        <mxCell id="H9n-Ir_IiPvq5BRFLjXa-141" value="&lt;code data-end=&quot;1366&quot; data-start=&quot;1354&quot;&gt;student_id&lt;/code&gt;" style="shape=partialRectangle;connectable=0;fillColor=none;top=0;left=0;bottom=0;right=0;align=left;spacingLeft=6;fontStyle=5;overflow=hidden;whiteSpace=wrap;html=1;" vertex="1" parent="H9n-Ir_IiPvq5BRFLjXa-139">
          <mxGeometry x="30" width="190" height="30" as="geometry">
            <mxRectangle width="190" height="30" as="alternateBounds" />
          </mxGeometry>
        </mxCell>
        <mxCell id="H9n-Ir_IiPvq5BRFLjXa-145" value="" style="shape=tableRow;horizontal=0;startSize=0;swimlaneHead=0;swimlaneBody=0;fillColor=none;collapsible=0;dropTarget=0;points=[[0,0.5],[1,0.5]];portConstraint=eastwest;top=0;left=0;right=0;bottom=0;" vertex="1" parent="H9n-Ir_IiPvq5BRFLjXa-135">
          <mxGeometry y="90" width="220" height="30" as="geometry" />
        </mxCell>
        <mxCell id="H9n-Ir_IiPvq5BRFLjXa-146" value="" style="shape=partialRectangle;connectable=0;fillColor=none;top=0;left=0;bottom=0;right=0;editable=1;overflow=hidden;whiteSpace=wrap;html=1;" vertex="1" parent="H9n-Ir_IiPvq5BRFLjXa-145">
          <mxGeometry width="30" height="30" as="geometry">
            <mxRectangle width="30" height="30" as="alternateBounds" />
          </mxGeometry>
        </mxCell>
        <mxCell id="H9n-Ir_IiPvq5BRFLjXa-147" value="&lt;code data-end=&quot;1106&quot; data-start=&quot;1100&quot;&gt;message&lt;/code&gt;" style="shape=partialRectangle;connectable=0;fillColor=none;top=0;left=0;bottom=0;right=0;align=left;spacingLeft=6;overflow=hidden;whiteSpace=wrap;html=1;" vertex="1" parent="H9n-Ir_IiPvq5BRFLjXa-145">
          <mxGeometry x="30" width="190" height="30" as="geometry">
            <mxRectangle width="190" height="30" as="alternateBounds" />
          </mxGeometry>
        </mxCell>
        <mxCell id="H9n-Ir_IiPvq5BRFLjXa-148" value="" style="shape=tableRow;horizontal=0;startSize=0;swimlaneHead=0;swimlaneBody=0;fillColor=none;collapsible=0;dropTarget=0;points=[[0,0.5],[1,0.5]];portConstraint=eastwest;top=0;left=0;right=0;bottom=0;" vertex="1" parent="H9n-Ir_IiPvq5BRFLjXa-135">
          <mxGeometry y="120" width="220" height="30" as="geometry" />
        </mxCell>
        <mxCell id="H9n-Ir_IiPvq5BRFLjXa-149" value="" style="shape=partialRectangle;connectable=0;fillColor=none;top=0;left=0;bottom=0;right=0;editable=1;overflow=hidden;whiteSpace=wrap;html=1;" vertex="1" parent="H9n-Ir_IiPvq5BRFLjXa-148">
          <mxGeometry width="30" height="30" as="geometry">
            <mxRectangle width="30" height="30" as="alternateBounds" />
          </mxGeometry>
        </mxCell>
        <mxCell id="H9n-Ir_IiPvq5BRFLjXa-150" value="timestamp" style="shape=partialRectangle;connectable=0;fillColor=none;top=0;left=0;bottom=0;right=0;align=left;spacingLeft=6;overflow=hidden;whiteSpace=wrap;html=1;" vertex="1" parent="H9n-Ir_IiPvq5BRFLjXa-148">
          <mxGeometry x="30" width="190" height="30" as="geometry">
            <mxRectangle width="190" height="30" as="alternateBounds" />
          </mxGeometry>
        </mxCell>
        <mxCell id="H9n-Ir_IiPvq5BRFLjXa-151" value="" style="shape=tableRow;horizontal=0;startSize=0;swimlaneHead=0;swimlaneBody=0;fillColor=none;collapsible=0;dropTarget=0;points=[[0,0.5],[1,0.5]];portConstraint=eastwest;top=0;left=0;right=0;bottom=0;" vertex="1" parent="H9n-Ir_IiPvq5BRFLjXa-135">
          <mxGeometry y="150" width="220" height="30" as="geometry" />
        </mxCell>
        <mxCell id="H9n-Ir_IiPvq5BRFLjXa-152" value="" style="shape=partialRectangle;connectable=0;fillColor=none;top=0;left=0;bottom=0;right=0;editable=1;overflow=hidden;whiteSpace=wrap;html=1;" vertex="1" parent="H9n-Ir_IiPvq5BRFLjXa-151">
          <mxGeometry width="30" height="30" as="geometry">
            <mxRectangle width="30" height="30" as="alternateBounds" />
          </mxGeometry>
        </mxCell>
        <mxCell id="H9n-Ir_IiPvq5BRFLjXa-153" value="rating" style="shape=partialRectangle;connectable=0;fillColor=none;top=0;left=0;bottom=0;right=0;align=left;spacingLeft=6;overflow=hidden;whiteSpace=wrap;html=1;" vertex="1" parent="H9n-Ir_IiPvq5BRFLjXa-151">
          <mxGeometry x="30" width="190" height="30" as="geometry">
            <mxRectangle width="190" height="30" as="alternateBounds" />
          </mxGeometry>
        </mxCell>
        <mxCell id="H9n-Ir_IiPvq5BRFLjXa-154" value="Payment" style="shape=table;startSize=30;container=1;collapsible=1;childLayout=tableLayout;fixedRows=1;rowLines=0;fontStyle=1;align=center;resizeLast=1;html=1;" vertex="1" parent="1">
          <mxGeometry x="120" y="310" width="220" height="210" as="geometry" />
        </mxCell>
        <mxCell id="H9n-Ir_IiPvq5BRFLjXa-155" value="" style="shape=tableRow;horizontal=0;startSize=0;swimlaneHead=0;swimlaneBody=0;fillColor=none;collapsible=0;dropTarget=0;points=[[0,0.5],[1,0.5]];portConstraint=eastwest;top=0;left=0;right=0;bottom=1;" vertex="1" parent="H9n-Ir_IiPvq5BRFLjXa-154">
          <mxGeometry y="30" width="220" height="30" as="geometry" />
        </mxCell>
        <mxCell id="H9n-Ir_IiPvq5BRFLjXa-156" value="PK" style="shape=partialRectangle;connectable=0;fillColor=none;top=0;left=0;bottom=0;right=0;fontStyle=1;overflow=hidden;whiteSpace=wrap;html=1;" vertex="1" parent="H9n-Ir_IiPvq5BRFLjXa-155">
          <mxGeometry width="30" height="30" as="geometry">
            <mxRectangle width="30" height="30" as="alternateBounds" />
          </mxGeometry>
        </mxCell>
        <mxCell id="H9n-Ir_IiPvq5BRFLjXa-157" value="&lt;code data-end=&quot;1449&quot; data-start=&quot;1437&quot;&gt;payment_id&lt;/code&gt;" style="shape=partialRectangle;connectable=0;fillColor=none;top=0;left=0;bottom=0;right=0;align=left;spacingLeft=6;fontStyle=5;overflow=hidden;whiteSpace=wrap;html=1;" vertex="1" parent="H9n-Ir_IiPvq5BRFLjXa-155">
          <mxGeometry x="30" width="190" height="30" as="geometry">
            <mxRectangle width="190" height="30" as="alternateBounds" />
          </mxGeometry>
        </mxCell>
        <mxCell id="H9n-Ir_IiPvq5BRFLjXa-158" value="" style="shape=tableRow;horizontal=0;startSize=0;swimlaneHead=0;swimlaneBody=0;fillColor=none;collapsible=0;dropTarget=0;points=[[0,0.5],[1,0.5]];portConstraint=eastwest;top=0;left=0;right=0;bottom=1;" vertex="1" parent="H9n-Ir_IiPvq5BRFLjXa-154">
          <mxGeometry y="60" width="220" height="30" as="geometry" />
        </mxCell>
        <mxCell id="H9n-Ir_IiPvq5BRFLjXa-159" value="FK" style="shape=partialRectangle;connectable=0;fillColor=none;top=0;left=0;bottom=0;right=0;fontStyle=1;overflow=hidden;whiteSpace=wrap;html=1;" vertex="1" parent="H9n-Ir_IiPvq5BRFLjXa-158">
          <mxGeometry width="30" height="30" as="geometry">
            <mxRectangle width="30" height="30" as="alternateBounds" />
          </mxGeometry>
        </mxCell>
        <mxCell id="H9n-Ir_IiPvq5BRFLjXa-160" value="&lt;code data-end=&quot;1469&quot; data-start=&quot;1457&quot;&gt;student_id&lt;/code&gt;" style="shape=partialRectangle;connectable=0;fillColor=none;top=0;left=0;bottom=0;right=0;align=left;spacingLeft=6;fontStyle=5;overflow=hidden;whiteSpace=wrap;html=1;" vertex="1" parent="H9n-Ir_IiPvq5BRFLjXa-158">
          <mxGeometry x="30" width="190" height="30" as="geometry">
            <mxRectangle width="190" height="30" as="alternateBounds" />
          </mxGeometry>
        </mxCell>
        <mxCell id="H9n-Ir_IiPvq5BRFLjXa-161" value="" style="shape=tableRow;horizontal=0;startSize=0;swimlaneHead=0;swimlaneBody=0;fillColor=none;collapsible=0;dropTarget=0;points=[[0,0.5],[1,0.5]];portConstraint=eastwest;top=0;left=0;right=0;bottom=0;" vertex="1" parent="H9n-Ir_IiPvq5BRFLjXa-154">
          <mxGeometry y="90" width="220" height="30" as="geometry" />
        </mxCell>
        <mxCell id="H9n-Ir_IiPvq5BRFLjXa-162" value="" style="shape=partialRectangle;connectable=0;fillColor=none;top=0;left=0;bottom=0;right=0;editable=1;overflow=hidden;whiteSpace=wrap;html=1;" vertex="1" parent="H9n-Ir_IiPvq5BRFLjXa-161">
          <mxGeometry width="30" height="30" as="geometry">
            <mxRectangle width="30" height="30" as="alternateBounds" />
          </mxGeometry>
        </mxCell>
        <mxCell id="H9n-Ir_IiPvq5BRFLjXa-163" value="&lt;code data-end=&quot;1106&quot; data-start=&quot;1100&quot;&gt;amount&lt;/code&gt;" style="shape=partialRectangle;connectable=0;fillColor=none;top=0;left=0;bottom=0;right=0;align=left;spacingLeft=6;overflow=hidden;whiteSpace=wrap;html=1;" vertex="1" parent="H9n-Ir_IiPvq5BRFLjXa-161">
          <mxGeometry x="30" width="190" height="30" as="geometry">
            <mxRectangle width="190" height="30" as="alternateBounds" />
          </mxGeometry>
        </mxCell>
        <mxCell id="H9n-Ir_IiPvq5BRFLjXa-164" value="" style="shape=tableRow;horizontal=0;startSize=0;swimlaneHead=0;swimlaneBody=0;fillColor=none;collapsible=0;dropTarget=0;points=[[0,0.5],[1,0.5]];portConstraint=eastwest;top=0;left=0;right=0;bottom=0;" vertex="1" parent="H9n-Ir_IiPvq5BRFLjXa-154">
          <mxGeometry y="120" width="220" height="30" as="geometry" />
        </mxCell>
        <mxCell id="H9n-Ir_IiPvq5BRFLjXa-165" value="" style="shape=partialRectangle;connectable=0;fillColor=none;top=0;left=0;bottom=0;right=0;editable=1;overflow=hidden;whiteSpace=wrap;html=1;" vertex="1" parent="H9n-Ir_IiPvq5BRFLjXa-164">
          <mxGeometry width="30" height="30" as="geometry">
            <mxRectangle width="30" height="30" as="alternateBounds" />
          </mxGeometry>
        </mxCell>
        <mxCell id="H9n-Ir_IiPvq5BRFLjXa-166" value="date" style="shape=partialRectangle;connectable=0;fillColor=none;top=0;left=0;bottom=0;right=0;align=left;spacingLeft=6;overflow=hidden;whiteSpace=wrap;html=1;" vertex="1" parent="H9n-Ir_IiPvq5BRFLjXa-164">
          <mxGeometry x="30" width="190" height="30" as="geometry">
            <mxRectangle width="190" height="30" as="alternateBounds" />
          </mxGeometry>
        </mxCell>
        <mxCell id="H9n-Ir_IiPvq5BRFLjXa-167" value="" style="shape=tableRow;horizontal=0;startSize=0;swimlaneHead=0;swimlaneBody=0;fillColor=none;collapsible=0;dropTarget=0;points=[[0,0.5],[1,0.5]];portConstraint=eastwest;top=0;left=0;right=0;bottom=0;" vertex="1" parent="H9n-Ir_IiPvq5BRFLjXa-154">
          <mxGeometry y="150" width="220" height="30" as="geometry" />
        </mxCell>
        <mxCell id="H9n-Ir_IiPvq5BRFLjXa-168" value="" style="shape=partialRectangle;connectable=0;fillColor=none;top=0;left=0;bottom=0;right=0;editable=1;overflow=hidden;whiteSpace=wrap;html=1;" vertex="1" parent="H9n-Ir_IiPvq5BRFLjXa-167">
          <mxGeometry width="30" height="30" as="geometry">
            <mxRectangle width="30" height="30" as="alternateBounds" />
          </mxGeometry>
        </mxCell>
        <mxCell id="H9n-Ir_IiPvq5BRFLjXa-169" value="payment_gateway" style="shape=partialRectangle;connectable=0;fillColor=none;top=0;left=0;bottom=0;right=0;align=left;spacingLeft=6;overflow=hidden;whiteSpace=wrap;html=1;" vertex="1" parent="H9n-Ir_IiPvq5BRFLjXa-167">
          <mxGeometry x="30" width="190" height="30" as="geometry">
            <mxRectangle width="190" height="30" as="alternateBounds" />
          </mxGeometry>
        </mxCell>
        <mxCell id="H9n-Ir_IiPvq5BRFLjXa-170" value="" style="shape=tableRow;horizontal=0;startSize=0;swimlaneHead=0;swimlaneBody=0;fillColor=none;collapsible=0;dropTarget=0;points=[[0,0.5],[1,0.5]];portConstraint=eastwest;top=0;left=0;right=0;bottom=0;" vertex="1" parent="H9n-Ir_IiPvq5BRFLjXa-154">
          <mxGeometry y="180" width="220" height="30" as="geometry" />
        </mxCell>
        <mxCell id="H9n-Ir_IiPvq5BRFLjXa-171" value="" style="shape=partialRectangle;connectable=0;fillColor=none;top=0;left=0;bottom=0;right=0;editable=1;overflow=hidden;whiteSpace=wrap;html=1;" vertex="1" parent="H9n-Ir_IiPvq5BRFLjXa-170">
          <mxGeometry width="30" height="30" as="geometry">
            <mxRectangle width="30" height="30" as="alternateBounds" />
          </mxGeometry>
        </mxCell>
        <mxCell id="H9n-Ir_IiPvq5BRFLjXa-172" value="receipt_number" style="shape=partialRectangle;connectable=0;fillColor=none;top=0;left=0;bottom=0;right=0;align=left;spacingLeft=6;overflow=hidden;whiteSpace=wrap;html=1;" vertex="1" parent="H9n-Ir_IiPvq5BRFLjXa-170">
          <mxGeometry x="30" width="190" height="30" as="geometry">
            <mxRectangle width="190" height="30" as="alternateBounds" />
          </mxGeometry>
        </mxCell>
        <mxCell id="H9n-Ir_IiPvq5BRFLjXa-173" value="VoiceCommand" style="shape=table;startSize=30;container=1;collapsible=1;childLayout=tableLayout;fixedRows=1;rowLines=0;fontStyle=1;align=center;resizeLast=1;html=1;" vertex="1" parent="1">
          <mxGeometry x="390" y="55" width="220" height="180" as="geometry" />
        </mxCell>
        <mxCell id="H9n-Ir_IiPvq5BRFLjXa-174" value="" style="shape=tableRow;horizontal=0;startSize=0;swimlaneHead=0;swimlaneBody=0;fillColor=none;collapsible=0;dropTarget=0;points=[[0,0.5],[1,0.5]];portConstraint=eastwest;top=0;left=0;right=0;bottom=1;" vertex="1" parent="H9n-Ir_IiPvq5BRFLjXa-173">
          <mxGeometry y="30" width="220" height="30" as="geometry" />
        </mxCell>
        <mxCell id="H9n-Ir_IiPvq5BRFLjXa-175" value="PK" style="shape=partialRectangle;connectable=0;fillColor=none;top=0;left=0;bottom=0;right=0;fontStyle=1;overflow=hidden;whiteSpace=wrap;html=1;" vertex="1" parent="H9n-Ir_IiPvq5BRFLjXa-174">
          <mxGeometry width="30" height="30" as="geometry">
            <mxRectangle width="30" height="30" as="alternateBounds" />
          </mxGeometry>
        </mxCell>
        <mxCell id="H9n-Ir_IiPvq5BRFLjXa-176" value="&lt;code data-end=&quot;1579&quot; data-start=&quot;1567&quot;&gt;command_id&lt;/code&gt;" style="shape=partialRectangle;connectable=0;fillColor=none;top=0;left=0;bottom=0;right=0;align=left;spacingLeft=6;fontStyle=5;overflow=hidden;whiteSpace=wrap;html=1;" vertex="1" parent="H9n-Ir_IiPvq5BRFLjXa-174">
          <mxGeometry x="30" width="190" height="30" as="geometry">
            <mxRectangle width="190" height="30" as="alternateBounds" />
          </mxGeometry>
        </mxCell>
        <mxCell id="H9n-Ir_IiPvq5BRFLjXa-177" value="" style="shape=tableRow;horizontal=0;startSize=0;swimlaneHead=0;swimlaneBody=0;fillColor=none;collapsible=0;dropTarget=0;points=[[0,0.5],[1,0.5]];portConstraint=eastwest;top=0;left=0;right=0;bottom=1;" vertex="1" parent="H9n-Ir_IiPvq5BRFLjXa-173">
          <mxGeometry y="60" width="220" height="30" as="geometry" />
        </mxCell>
        <mxCell id="H9n-Ir_IiPvq5BRFLjXa-178" value="FK" style="shape=partialRectangle;connectable=0;fillColor=none;top=0;left=0;bottom=0;right=0;fontStyle=1;overflow=hidden;whiteSpace=wrap;html=1;" vertex="1" parent="H9n-Ir_IiPvq5BRFLjXa-177">
          <mxGeometry width="30" height="30" as="geometry">
            <mxRectangle width="30" height="30" as="alternateBounds" />
          </mxGeometry>
        </mxCell>
        <mxCell id="H9n-Ir_IiPvq5BRFLjXa-179" value="&lt;code data-end=&quot;1469&quot; data-start=&quot;1457&quot;&gt;student_id&lt;/code&gt;" style="shape=partialRectangle;connectable=0;fillColor=none;top=0;left=0;bottom=0;right=0;align=left;spacingLeft=6;fontStyle=5;overflow=hidden;whiteSpace=wrap;html=1;" vertex="1" parent="H9n-Ir_IiPvq5BRFLjXa-177">
          <mxGeometry x="30" width="190" height="30" as="geometry">
            <mxRectangle width="190" height="30" as="alternateBounds" />
          </mxGeometry>
        </mxCell>
        <mxCell id="H9n-Ir_IiPvq5BRFLjXa-180" value="" style="shape=tableRow;horizontal=0;startSize=0;swimlaneHead=0;swimlaneBody=0;fillColor=none;collapsible=0;dropTarget=0;points=[[0,0.5],[1,0.5]];portConstraint=eastwest;top=0;left=0;right=0;bottom=0;" vertex="1" parent="H9n-Ir_IiPvq5BRFLjXa-173">
          <mxGeometry y="90" width="220" height="30" as="geometry" />
        </mxCell>
        <mxCell id="H9n-Ir_IiPvq5BRFLjXa-181" value="" style="shape=partialRectangle;connectable=0;fillColor=none;top=0;left=0;bottom=0;right=0;editable=1;overflow=hidden;whiteSpace=wrap;html=1;" vertex="1" parent="H9n-Ir_IiPvq5BRFLjXa-180">
          <mxGeometry width="30" height="30" as="geometry">
            <mxRectangle width="30" height="30" as="alternateBounds" />
          </mxGeometry>
        </mxCell>
        <mxCell id="H9n-Ir_IiPvq5BRFLjXa-182" value="&lt;code data-end=&quot;1106&quot; data-start=&quot;1100&quot;&gt;command_text&lt;/code&gt;" style="shape=partialRectangle;connectable=0;fillColor=none;top=0;left=0;bottom=0;right=0;align=left;spacingLeft=6;overflow=hidden;whiteSpace=wrap;html=1;" vertex="1" parent="H9n-Ir_IiPvq5BRFLjXa-180">
          <mxGeometry x="30" width="190" height="30" as="geometry">
            <mxRectangle width="190" height="30" as="alternateBounds" />
          </mxGeometry>
        </mxCell>
        <mxCell id="H9n-Ir_IiPvq5BRFLjXa-183" value="" style="shape=tableRow;horizontal=0;startSize=0;swimlaneHead=0;swimlaneBody=0;fillColor=none;collapsible=0;dropTarget=0;points=[[0,0.5],[1,0.5]];portConstraint=eastwest;top=0;left=0;right=0;bottom=0;" vertex="1" parent="H9n-Ir_IiPvq5BRFLjXa-173">
          <mxGeometry y="120" width="220" height="30" as="geometry" />
        </mxCell>
        <mxCell id="H9n-Ir_IiPvq5BRFLjXa-184" value="" style="shape=partialRectangle;connectable=0;fillColor=none;top=0;left=0;bottom=0;right=0;editable=1;overflow=hidden;whiteSpace=wrap;html=1;" vertex="1" parent="H9n-Ir_IiPvq5BRFLjXa-183">
          <mxGeometry width="30" height="30" as="geometry">
            <mxRectangle width="30" height="30" as="alternateBounds" />
          </mxGeometry>
        </mxCell>
        <mxCell id="H9n-Ir_IiPvq5BRFLjXa-185" value="timestamp" style="shape=partialRectangle;connectable=0;fillColor=none;top=0;left=0;bottom=0;right=0;align=left;spacingLeft=6;overflow=hidden;whiteSpace=wrap;html=1;" vertex="1" parent="H9n-Ir_IiPvq5BRFLjXa-183">
          <mxGeometry x="30" width="190" height="30" as="geometry">
            <mxRectangle width="190" height="30" as="alternateBounds" />
          </mxGeometry>
        </mxCell>
        <mxCell id="H9n-Ir_IiPvq5BRFLjXa-186" value="" style="shape=tableRow;horizontal=0;startSize=0;swimlaneHead=0;swimlaneBody=0;fillColor=none;collapsible=0;dropTarget=0;points=[[0,0.5],[1,0.5]];portConstraint=eastwest;top=0;left=0;right=0;bottom=0;" vertex="1" parent="H9n-Ir_IiPvq5BRFLjXa-173">
          <mxGeometry y="150" width="220" height="30" as="geometry" />
        </mxCell>
        <mxCell id="H9n-Ir_IiPvq5BRFLjXa-187" value="" style="shape=partialRectangle;connectable=0;fillColor=none;top=0;left=0;bottom=0;right=0;editable=1;overflow=hidden;whiteSpace=wrap;html=1;" vertex="1" parent="H9n-Ir_IiPvq5BRFLjXa-186">
          <mxGeometry width="30" height="30" as="geometry">
            <mxRectangle width="30" height="30" as="alternateBounds" />
          </mxGeometry>
        </mxCell>
        <mxCell id="H9n-Ir_IiPvq5BRFLjXa-188" value="recognized_action" style="shape=partialRectangle;connectable=0;fillColor=none;top=0;left=0;bottom=0;right=0;align=left;spacingLeft=6;overflow=hidden;whiteSpace=wrap;html=1;" vertex="1" parent="H9n-Ir_IiPvq5BRFLjXa-186">
          <mxGeometry x="30" width="190" height="30" as="geometry">
            <mxRectangle width="190" height="30" as="alternateBounds" />
          </mxGeometry>
        </mxCell>
        <mxCell id="H9n-Ir_IiPvq5BRFLjXa-192" value="AdminReport" style="shape=table;startSize=30;container=1;collapsible=1;childLayout=tableLayout;fixedRows=1;rowLines=0;fontStyle=1;align=center;resizeLast=1;html=1;" vertex="1" parent="1">
          <mxGeometry x="400" y="610" width="220" height="150" as="geometry" />
        </mxCell>
        <mxCell id="H9n-Ir_IiPvq5BRFLjXa-193" value="" style="shape=tableRow;horizontal=0;startSize=0;swimlaneHead=0;swimlaneBody=0;fillColor=none;collapsible=0;dropTarget=0;points=[[0,0.5],[1,0.5]];portConstraint=eastwest;top=0;left=0;right=0;bottom=1;" vertex="1" parent="H9n-Ir_IiPvq5BRFLjXa-192">
          <mxGeometry y="30" width="220" height="30" as="geometry" />
        </mxCell>
        <mxCell id="H9n-Ir_IiPvq5BRFLjXa-194" value="PK" style="shape=partialRectangle;connectable=0;fillColor=none;top=0;left=0;bottom=0;right=0;fontStyle=1;overflow=hidden;whiteSpace=wrap;html=1;" vertex="1" parent="H9n-Ir_IiPvq5BRFLjXa-193">
          <mxGeometry width="30" height="30" as="geometry">
            <mxRectangle width="30" height="30" as="alternateBounds" />
          </mxGeometry>
        </mxCell>
        <mxCell id="H9n-Ir_IiPvq5BRFLjXa-195" value="&lt;code data-end=&quot;1701&quot; data-start=&quot;1690&quot;&gt;report_id&lt;/code&gt;" style="shape=partialRectangle;connectable=0;fillColor=none;top=0;left=0;bottom=0;right=0;align=left;spacingLeft=6;fontStyle=5;overflow=hidden;whiteSpace=wrap;html=1;" vertex="1" parent="H9n-Ir_IiPvq5BRFLjXa-193">
          <mxGeometry x="30" width="190" height="30" as="geometry">
            <mxRectangle width="190" height="30" as="alternateBounds" />
          </mxGeometry>
        </mxCell>
        <mxCell id="H9n-Ir_IiPvq5BRFLjXa-199" value="" style="shape=tableRow;horizontal=0;startSize=0;swimlaneHead=0;swimlaneBody=0;fillColor=none;collapsible=0;dropTarget=0;points=[[0,0.5],[1,0.5]];portConstraint=eastwest;top=0;left=0;right=0;bottom=0;" vertex="1" parent="H9n-Ir_IiPvq5BRFLjXa-192">
          <mxGeometry y="60" width="220" height="30" as="geometry" />
        </mxCell>
        <mxCell id="H9n-Ir_IiPvq5BRFLjXa-200" value="" style="shape=partialRectangle;connectable=0;fillColor=none;top=0;left=0;bottom=0;right=0;editable=1;overflow=hidden;whiteSpace=wrap;html=1;" vertex="1" parent="H9n-Ir_IiPvq5BRFLjXa-199">
          <mxGeometry width="30" height="30" as="geometry">
            <mxRectangle width="30" height="30" as="alternateBounds" />
          </mxGeometry>
        </mxCell>
        <mxCell id="H9n-Ir_IiPvq5BRFLjXa-201" value="&lt;code data-end=&quot;1723&quot; data-start=&quot;1709&quot;&gt;generated_by&lt;/code&gt;" style="shape=partialRectangle;connectable=0;fillColor=none;top=0;left=0;bottom=0;right=0;align=left;spacingLeft=6;overflow=hidden;whiteSpace=wrap;html=1;" vertex="1" parent="H9n-Ir_IiPvq5BRFLjXa-199">
          <mxGeometry x="30" width="190" height="30" as="geometry">
            <mxRectangle width="190" height="30" as="alternateBounds" />
          </mxGeometry>
        </mxCell>
        <mxCell id="H9n-Ir_IiPvq5BRFLjXa-202" value="" style="shape=tableRow;horizontal=0;startSize=0;swimlaneHead=0;swimlaneBody=0;fillColor=none;collapsible=0;dropTarget=0;points=[[0,0.5],[1,0.5]];portConstraint=eastwest;top=0;left=0;right=0;bottom=0;" vertex="1" parent="H9n-Ir_IiPvq5BRFLjXa-192">
          <mxGeometry y="90" width="220" height="30" as="geometry" />
        </mxCell>
        <mxCell id="H9n-Ir_IiPvq5BRFLjXa-203" value="" style="shape=partialRectangle;connectable=0;fillColor=none;top=0;left=0;bottom=0;right=0;editable=1;overflow=hidden;whiteSpace=wrap;html=1;" vertex="1" parent="H9n-Ir_IiPvq5BRFLjXa-202">
          <mxGeometry width="30" height="30" as="geometry">
            <mxRectangle width="30" height="30" as="alternateBounds" />
          </mxGeometry>
        </mxCell>
        <mxCell id="H9n-Ir_IiPvq5BRFLjXa-204" value="description" style="shape=partialRectangle;connectable=0;fillColor=none;top=0;left=0;bottom=0;right=0;align=left;spacingLeft=6;overflow=hidden;whiteSpace=wrap;html=1;" vertex="1" parent="H9n-Ir_IiPvq5BRFLjXa-202">
          <mxGeometry x="30" width="190" height="30" as="geometry">
            <mxRectangle width="190" height="30" as="alternateBounds" />
          </mxGeometry>
        </mxCell>
        <mxCell id="H9n-Ir_IiPvq5BRFLjXa-205" value="" style="shape=tableRow;horizontal=0;startSize=0;swimlaneHead=0;swimlaneBody=0;fillColor=none;collapsible=0;dropTarget=0;points=[[0,0.5],[1,0.5]];portConstraint=eastwest;top=0;left=0;right=0;bottom=0;" vertex="1" parent="H9n-Ir_IiPvq5BRFLjXa-192">
          <mxGeometry y="120" width="220" height="30" as="geometry" />
        </mxCell>
        <mxCell id="H9n-Ir_IiPvq5BRFLjXa-206" value="" style="shape=partialRectangle;connectable=0;fillColor=none;top=0;left=0;bottom=0;right=0;editable=1;overflow=hidden;whiteSpace=wrap;html=1;" vertex="1" parent="H9n-Ir_IiPvq5BRFLjXa-205">
          <mxGeometry width="30" height="30" as="geometry">
            <mxRectangle width="30" height="30" as="alternateBounds" />
          </mxGeometry>
        </mxCell>
        <mxCell id="H9n-Ir_IiPvq5BRFLjXa-207" value="date_created" style="shape=partialRectangle;connectable=0;fillColor=none;top=0;left=0;bottom=0;right=0;align=left;spacingLeft=6;overflow=hidden;whiteSpace=wrap;html=1;" vertex="1" parent="H9n-Ir_IiPvq5BRFLjXa-205">
          <mxGeometry x="30" width="190" height="30" as="geometry">
            <mxRectangle width="190" height="30" as="alternateBounds" />
          </mxGeometry>
        </mxCell>
        <mxCell id="H9n-Ir_IiPvq5BRFLjXa-208" value="" style="edgeStyle=entityRelationEdgeStyle;fontSize=12;html=1;endArrow=ERmany;rounded=0;exitX=0;exitY=0.5;exitDx=0;exitDy=0;entryX=1;entryY=0.056;entryDx=0;entryDy=0;entryPerimeter=0;" edge="1" parent="1" source="H9n-Ir_IiPvq5BRFLjXa-11" target="H9n-Ir_IiPvq5BRFLjXa-75">
          <mxGeometry width="100" height="100" relative="1" as="geometry">
            <mxPoint x="-40" y="260" as="sourcePoint" />
            <mxPoint x="60" y="160" as="targetPoint" />
            <Array as="points">
              <mxPoint x="-310" y="240" />
              <mxPoint x="-150" y="210" />
              <mxPoint x="-280" y="240" />
            </Array>
          </mxGeometry>
        </mxCell>
        <mxCell id="H9n-Ir_IiPvq5BRFLjXa-211" value="" style="edgeStyle=entityRelationEdgeStyle;fontSize=12;html=1;endArrow=ERmany;rounded=0;exitX=0;exitY=0.5;exitDx=0;exitDy=0;entryX=0.989;entryY=0.12;entryDx=0;entryDy=0;entryPerimeter=0;" edge="1" parent="1" source="H9n-Ir_IiPvq5BRFLjXa-50" target="H9n-Ir_IiPvq5BRFLjXa-135">
          <mxGeometry width="100" height="100" relative="1" as="geometry">
            <mxPoint x="150" y="95" as="sourcePoint" />
            <mxPoint x="-190" y="330" as="targetPoint" />
            <Array as="points">
              <mxPoint x="-300" y="250" />
              <mxPoint x="-140" y="220" />
              <mxPoint x="-270" y="250" />
            </Array>
          </mxGeometry>
        </mxCell>
        <mxCell id="H9n-Ir_IiPvq5BRFLjXa-212" value="" style="edgeStyle=entityRelationEdgeStyle;fontSize=12;html=1;endArrow=ERmany;rounded=0;" edge="1" parent="1" source="H9n-Ir_IiPvq5BRFLjXa-50" target="H9n-Ir_IiPvq5BRFLjXa-154">
          <mxGeometry width="100" height="100" relative="1" as="geometry">
            <mxPoint x="150" y="185" as="sourcePoint" />
            <mxPoint x="78" y="342" as="targetPoint" />
            <Array as="points">
              <mxPoint x="-290" y="260" />
              <mxPoint x="280" y="300" />
              <mxPoint x="-130" y="230" />
              <mxPoint x="-260" y="260" />
              <mxPoint x="370" y="300" />
            </Array>
          </mxGeometry>
        </mxCell>
        <mxCell id="H9n-Ir_IiPvq5BRFLjXa-215" value="" style="edgeStyle=entityRelationEdgeStyle;fontSize=12;html=1;endArrow=ERmany;rounded=0;exitX=1;exitY=0.5;exitDx=0;exitDy=0;" edge="1" parent="1" source="H9n-Ir_IiPvq5BRFLjXa-47" target="H9n-Ir_IiPvq5BRFLjXa-173">
          <mxGeometry width="100" height="100" relative="1" as="geometry">
            <mxPoint x="330" y="185" as="sourcePoint" />
            <mxPoint x="350" y="425" as="targetPoint" />
            <Array as="points">
              <mxPoint x="-280" y="270" />
              <mxPoint x="650" y="210" />
              <mxPoint x="-120" y="240" />
              <mxPoint x="-250" y="270" />
              <mxPoint x="380" y="310" />
            </Array>
          </mxGeometry>
        </mxCell>
        <mxCell id="H9n-Ir_IiPvq5BRFLjXa-218" value="" style="edgeStyle=entityRelationEdgeStyle;fontSize=12;html=1;endArrow=ERmany;rounded=0;exitX=1;exitY=0.5;exitDx=0;exitDy=0;entryX=0;entryY=0.5;entryDx=0;entryDy=0;" edge="1" parent="1" source="H9n-Ir_IiPvq5BRFLjXa-88" target="H9n-Ir_IiPvq5BRFLjXa-94">
          <mxGeometry width="100" height="100" relative="1" as="geometry">
            <mxPoint x="150" y="95" as="sourcePoint" />
            <mxPoint x="-190" y="330" as="targetPoint" />
            <Array as="points">
              <mxPoint x="-300" y="250" />
              <mxPoint x="-140" y="220" />
              <mxPoint x="-270" y="250" />
            </Array>
          </mxGeometry>
        </mxCell>
        <mxCell id="H9n-Ir_IiPvq5BRFLjXa-219" value="" style="edgeStyle=entityRelationEdgeStyle;fontSize=12;html=1;endArrow=ERmany;rounded=0;exitX=0;exitY=0.5;exitDx=0;exitDy=0;entryX=1;entryY=0.5;entryDx=0;entryDy=0;" edge="1" parent="1" source="H9n-Ir_IiPvq5BRFLjXa-113" target="H9n-Ir_IiPvq5BRFLjXa-94">
          <mxGeometry width="100" height="100" relative="1" as="geometry">
            <mxPoint x="330" y="520" as="sourcePoint" />
            <mxPoint x="670" y="705" as="targetPoint" />
            <Array as="points">
              <mxPoint x="250" y="295" />
              <mxPoint x="410" y="265" />
              <mxPoint x="280" y="295" />
            </Array>
          </mxGeometry>
        </mxCell>
        <mxCell id="H9n-Ir_IiPvq5BRFLjXa-220" value="" style="edgeStyle=entityRelationEdgeStyle;fontSize=12;html=1;endArrow=ERmany;rounded=0;exitX=1;exitY=0.5;exitDx=0;exitDy=0;" edge="1" parent="1" source="H9n-Ir_IiPvq5BRFLjXa-113" target="H9n-Ir_IiPvq5BRFLjXa-199">
          <mxGeometry width="100" height="100" relative="1" as="geometry">
            <mxPoint x="440" y="505" as="sourcePoint" />
            <mxPoint x="340" y="670" as="targetPoint" />
            <Array as="points">
              <mxPoint x="260" y="305" />
              <mxPoint x="420" y="275" />
              <mxPoint x="290" y="305" />
            </Array>
          </mxGeometry>
        </mxCell>
        <mxCell id="H9n-Ir_IiPvq5BRFLjXa-224" value="" style="edgeStyle=entityRelationEdgeStyle;fontSize=12;html=1;endArrow=ERmany;rounded=0;exitX=0;exitY=0.5;exitDx=0;exitDy=0;entryX=1;entryY=0.5;entryDx=0;entryDy=0;" edge="1" parent="1" source="H9n-Ir_IiPvq5BRFLjXa-82" target="H9n-Ir_IiPvq5BRFLjXa-117">
          <mxGeometry width="100" height="100" relative="1" as="geometry">
            <mxPoint x="-760" y="492" as="sourcePoint" />
            <mxPoint x="-430" y="677" as="targetPoint" />
            <Array as="points">
              <mxPoint x="-840" y="267" />
              <mxPoint x="-680" y="237" />
              <mxPoint x="-810" y="267" />
            </Array>
          </mxGeometry>
        </mxCell>
      </root>
    </mxGraphModel>
  </diagram>
</mxfile>
